<svg width="42" height="40" viewBox="0 0 42 40" fill="none" xmlns="http://www.w3.org/2000/svg">
<g clip-path="url(#clip0_43_657)">
<path d="M41.1765 0H0V40H41.1765V0Z" fill="#AF89CD"/>
<path opacity="0.35" d="M34.2918 21.1H29.2476V16.684H30.9894C31.6153 16.684 32.1259 16.188 32.1259 15.58C32.1259 14.972 31.6153 14.476 30.9894 14.476H29.2476H28.7412V12.268H29.3794C30.0053 12.268 30.5159 11.772 30.5159 11.164C30.5159 10.556 30.0053 10.06 29.3794 10.06H28.7412H28.6341H21.8688H21.6382H14.5723H12.9541C12.3282 10.06 11.8176 10.556 11.8176 11.164C11.8176 11.772 12.3282 12.268 12.9541 12.268H15.9065C16.5341 12.268 17.0429 12.7623 17.0429 13.372C17.0429 13.9817 16.5341 14.476 15.9065 14.476H9.09999C8.61823 14.476 8.22705 14.856 8.22705 15.324C8.22705 15.792 8.61823 16.172 9.09999 16.172H13.6623C14.1649 16.172 14.5723 16.5678 14.5723 17.056C14.5723 17.5442 14.1649 17.94 13.6623 17.94H6.37411C5.74823 17.94 5.23764 18.436 5.23764 19.044C5.23764 19.652 5.74823 20.148 6.37411 20.148H14.5723V22.356H9.17411C8.16941 22.356 7.35411 23.148 7.35411 24.124C7.35411 25.1 8.16941 25.892 9.17411 25.892H14.5723H16.9688H18.3153H29.2476H34.2918C35.6506 25.892 36.7541 24.82 36.7541 23.5C36.7541 22.172 35.6506 21.1 34.2918 21.1Z" fill="#395D77"/>
<path opacity="0.35" d="M33.6865 16.684C33.0606 16.684 32.55 16.188 32.55 15.58C32.55 14.972 33.0606 14.476 33.6865 14.476C34.3123 14.476 34.8229 14.972 34.8229 15.58C34.8229 16.188 34.3165 16.684 33.6865 16.684Z" fill="#395D77"/>
<path d="M32.6694 14.472H25.9494C25.3235 14.472 24.8129 13.976 24.8129 13.368C24.8129 12.76 25.3235 12.264 25.9494 12.264H32.6735V14.472H32.6694Z" fill="#1B3B52"/>
<path d="M37.5035 21.1H29.0212C27.7653 21.1 26.7482 20.112 26.7482 18.892C26.7482 17.672 27.7653 16.684 29.0212 16.684H37.5035V21.1Z" fill="#1B3B52"/>
<path opacity="0.35" d="M10.1088 12.264H9.94824C9.32236 12.264 8.81177 11.768 8.81177 11.16C8.81177 10.552 9.32236 10.056 9.94824 10.056H10.1088C10.7347 10.056 11.2453 10.552 11.2453 11.16C11.2453 11.772 10.7388 12.264 10.1088 12.264Z" fill="#395D77"/>
<path d="M34.7653 26.572H7.58471C7.35824 26.572 7.17294 26.752 7.17294 26.972C7.17294 27.192 7.35824 27.372 7.58471 27.372H13.8765C13.65 27.372 13.4647 27.552 13.4647 27.772C13.4647 27.992 13.65 28.172 13.8765 28.172H12.1347C11.9082 28.172 11.7229 28.352 11.7229 28.572C11.7229 28.792 11.9082 28.972 12.1347 28.972H27.79C28.0165 28.972 28.2018 28.792 28.2018 28.572C28.2018 28.352 28.0165 28.172 27.79 28.172H28.8359C29.0624 28.172 29.2476 27.992 29.2476 27.772C29.2476 27.552 29.0624 27.372 28.8359 27.372H34.7694C34.9959 27.372 35.1812 27.192 35.1812 26.972C35.1771 26.748 34.9918 26.572 34.7653 26.572Z" fill="#1B2238"/>
<path d="M35.6794 28.172H20.72C20.4935 28.172 20.3082 27.992 20.3082 27.772C20.3082 27.552 20.4935 27.372 20.72 27.372H35.6794C35.9059 27.372 36.0912 27.552 36.0912 27.772C36.0912 27.992 35.9059 28.172 35.6794 28.172Z" fill="#1B3B52"/>
<path d="M15.5647 28.172H4.05178C3.82531 28.172 3.64001 27.992 3.64001 27.772C3.64001 27.552 3.82531 27.372 4.05178 27.372H15.5647C15.7912 27.372 15.9765 27.552 15.9765 27.772C15.9765 27.992 15.7912 28.172 15.5647 28.172Z" fill="#1B3B52"/>
<path d="M19.007 18.252H9.2894V25.532H19.007V18.252Z" fill="#1B2238"/>
<path d="M18.2634 24.8114V18.9714H10.0281V24.8114H18.2634Z" fill="#1A1F33"/>
<path d="M9.28941 18.252H8.63058V25.532H9.28941V18.252Z" fill="#6C9C36"/>
<path d="M25.0888 24.592H22.3794C21.6053 24.592 20.9794 23.984 20.9794 23.232C20.9794 22.48 21.6053 21.872 22.3794 21.872H25.0888C25.8629 21.872 26.4888 22.48 26.4888 23.232C26.4888 23.98 25.8629 24.592 25.0888 24.592Z" fill="#E63E35"/>
<path d="M24.2365 24.592H10.6894C9.91528 24.592 9.2894 23.984 9.2894 23.232C9.2894 22.48 9.91528 21.872 10.6894 21.872H24.2365C25.0106 21.872 25.6365 22.48 25.6365 23.232C25.6365 23.98 25.0106 24.592 24.2365 24.592Z" fill="#C61D34"/>
<path d="M9.51587 23.972C9.76705 24.344 10.1994 24.592 10.6894 24.592H24.2365C24.7306 24.592 25.1629 24.344 25.41 23.972H9.51587Z" fill="#AF142E"/>
<path d="M33.007 20.572H23.2894V25.532H33.007V20.572Z" fill="#1B2238"/>
<path d="M32.2634 24.8114V21.2914H24.0281V24.8114H32.2634Z" fill="#1A1F33"/>
<path d="M23.2894 20.572H22.6306V25.532H23.2894V20.572Z" fill="#6C9C38"/>
<path d="M25.1423 25.532H24.4835V26.972H25.1423V25.532Z" fill="#593422"/>
<path d="M25.1423 25.532H24.4835V25.796H25.1423V25.532Z" fill="#1A1F33"/>
<path d="M25.6365 25.532H25.1423V26.972H25.6365V25.532Z" fill="#1A1F33"/>
<path d="M31.3188 25.532H30.66V26.972H31.3188V25.532Z" fill="#1B2238"/>
<path d="M31.3188 25.532H30.66V25.796H31.3188V25.532Z" fill="#1A1F33"/>
<path d="M31.8129 25.532H31.3188V26.972H31.8129V25.532Z" fill="#1A1F33"/>
<path d="M11.1423 25.532H10.4835V26.972H11.1423V25.532Z" fill="#593422"/>
<path d="M11.1423 25.532H10.4835V25.796H11.1423V25.532Z" fill="#1A1F33"/>
<path d="M11.6365 25.532H11.1424V26.972H11.6365V25.532Z" fill="#1A1F33"/>
<path d="M17.3188 25.532H16.66V26.972H17.3188V25.532Z" fill="#1A1F33"/>
<path d="M17.3188 25.532H16.66V25.796H17.3188V25.532Z" fill="#1A1F33"/>
<path d="M17.8129 25.532H17.3188V26.972H17.8129V25.532Z" fill="#1A1F33"/>
<path d="M22.6306 24.572H8.63058V25.532H22.6306V24.572Z" fill="#6C9C38"/>
<path d="M20.8888 23.296C20.8888 22.596 21.4735 22.032 22.19 22.032H22.3177V21.872H21.7947C21.0206 21.872 20.3947 22.48 20.3947 23.232V25.532H20.8888V23.296Z" fill="#1B2238"/>
<path d="M21.9141 21.872H16.0176C15.2435 21.872 14.6176 22.48 14.6176 23.232V26.972H20.5141V23.232C20.5141 22.48 21.14 21.872 21.9141 21.872Z" fill="#F0EC95"/>
<path d="M17.6977 22.212C18.5459 22.212 19.2335 22.1242 19.2335 22.016C19.2335 21.9078 18.5459 21.82 17.6977 21.82C16.8494 21.82 16.1618 21.9078 16.1618 22.016C16.1618 22.1242 16.8494 22.212 17.6977 22.212Z" fill="#1B2238"/>
<path d="M14.033 22.264C14.8812 22.264 15.5688 22.1763 15.5688 22.068C15.5688 21.9598 14.8812 21.872 14.033 21.872C13.1847 21.872 12.4971 21.9598 12.4971 22.068C12.4971 22.1763 13.1847 22.264 14.033 22.264Z" fill="#1B2238"/>
<path d="M20.6418 26.972V23.232C20.6418 22.572 21.1976 22.032 21.8771 22.032H22.0459V21.872H21.8771C21.1029 21.872 20.4771 22.48 20.4771 23.232V26.972H20.6418Z" fill="#CEC67A"/>
<path d="M22.6306 21.872H22.0047V22.032H22.6306V21.872Z" fill="#CEC67A"/>
<path d="M16.1412 26.972H15.5235V23.632C15.5235 23.468 15.6635 23.332 15.8324 23.332C16.0012 23.332 16.1412 23.468 16.1412 23.632V26.972Z" fill="#CEC67A"/>
<path d="M17.2983 26.972H16.6806V23.632C16.6806 23.468 16.8206 23.332 16.9894 23.332C17.1583 23.332 17.2983 23.468 17.2983 23.632V26.972Z" fill="#CEC67A"/>
<path d="M18.4512 26.972H17.8335V23.632C17.8335 23.468 17.9735 23.332 18.1424 23.332C18.3112 23.332 18.4512 23.468 18.4512 23.632V26.972Z" fill="#CEC67A"/>
<path d="M19.6082 26.972H18.9906V23.632C18.9906 23.468 19.1306 23.332 19.2994 23.332C19.4682 23.332 19.6082 23.468 19.6082 23.632V26.972Z" fill="#CEC67A"/>
<path d="M18.5171 20.36C18.163 19.976 17.6771 19.772 17.1871 19.752C17.183 19.752 17.1788 19.752 17.1706 19.752H15.0459L16.5571 21.972H18.69C18.8465 21.972 18.9783 21.856 18.9906 21.704C19.0277 21.232 18.8712 20.744 18.5171 20.36Z" fill="#CBDDAF"/>
<path d="M15.2188 21.36C15.5729 21.744 16.0588 21.948 16.5488 21.968C16.7094 21.976 16.8494 21.856 16.8618 21.7C16.8988 21.228 16.7423 20.74 16.3882 20.356C16.0341 19.972 15.5482 19.768 15.0582 19.748C14.8976 19.74 14.7576 19.86 14.7453 20.016C14.7123 20.492 14.8647 20.976 15.2188 21.36Z" fill="#EFF9E1"/>
<path d="M16.8659 21.664C16.8659 21.676 16.8659 21.688 16.8659 21.704C16.8535 21.856 16.7218 21.972 16.5612 21.972H18.6941C18.8506 21.972 18.9824 21.856 18.9947 21.704C18.9947 21.692 18.9947 21.68 18.9947 21.664H16.8659Z" fill="#A4B783"/>
<path d="M14.9182 20.36C14.5641 19.976 14.0782 19.772 13.5882 19.752C13.5841 19.752 13.58 19.752 13.5718 19.752H11.4471L12.9582 21.972H15.0912C15.2476 21.972 15.3794 21.856 15.3918 21.704C15.4247 21.232 15.2723 20.744 14.9182 20.36Z" fill="#CBDDAF"/>
<path d="M11.62 21.36C11.9741 21.744 12.46 21.948 12.95 21.968C13.1106 21.976 13.2506 21.856 13.2629 21.7C13.3 21.228 13.1435 20.74 12.7894 20.356C12.4353 19.972 11.9494 19.768 11.4594 19.748C11.2988 19.74 11.1588 19.86 11.1465 20.016C11.1094 20.492 11.2659 20.976 11.62 21.36Z" fill="#EFF9E1"/>
<path d="M13.267 21.664C13.267 21.676 13.267 21.688 13.267 21.704C13.2547 21.856 13.1229 21.972 12.9623 21.972H15.0953C15.2518 21.972 15.3835 21.856 15.3959 21.704C15.3959 21.692 15.3959 21.68 15.3959 21.664H13.267Z" fill="#A4B783"/>
<path d="M26.7029 14.288C26.7359 14.048 26.6041 13.804 26.3694 13.736C26.1347 13.668 25.8712 13.856 25.8259 14.164C25.8176 14.22 25.8176 14.276 25.8259 14.328C25.83 14.892 25.9494 15.44 26.1635 15.944C26.3035 15.908 26.4435 15.872 26.5794 15.832C26.5135 15.344 26.5465 14.864 26.6659 14.416C26.6823 14.376 26.6947 14.332 26.7029 14.288Z" fill="#6C9C38"/>
<path d="M26.5959 14.712C26.6577 14.624 26.7729 14.584 26.8718 14.632C26.9665 14.676 26.9953 14.812 26.9171 14.924C26.9006 14.944 26.8841 14.964 26.8677 14.976C26.6947 15.156 26.6988 15.332 26.4765 15.432C26.4435 15.38 26.4106 15.328 26.3777 15.276C26.5465 15.136 26.4724 14.94 26.5712 14.76C26.5753 14.744 26.5835 14.728 26.5959 14.712Z" fill="#1A1F33"/>
<path d="M26.3694 13.724C26.3077 13.708 26.1594 13.708 26.0606 13.788C26.1018 13.768 26.1635 13.772 26.1677 13.772C26.4147 13.792 26.563 14.048 26.53 14.288C26.5218 14.332 26.5094 14.376 26.493 14.416C26.3735 14.864 26.3406 15.344 26.4065 15.832C26.32 15.856 26.2335 15.88 26.1471 15.9C26.1512 15.912 26.1594 15.928 26.1635 15.94C26.3035 15.904 26.4435 15.868 26.5794 15.828C26.5135 15.34 26.5465 14.86 26.6659 14.412C26.6824 14.372 26.6947 14.328 26.703 14.284C26.7359 14.048 26.6041 13.792 26.3694 13.724Z" fill="#1A1F33"/>
<path d="M25.8876 16.696H26.8388C27.1271 16.488 27.3165 16.1 27.3165 15.656H25.4059C25.41 16.1 25.6035 16.488 25.8876 16.696Z" fill="#F9F9F9"/>
<path d="M26.0327 14.292L25.9412 14.312L26.0286 14.352C26.0494 14.36 26.0743 14.348 26.0743 14.324V14.32C26.0702 14.304 26.0494 14.288 26.0327 14.292Z" fill="#3A7741"/>
<path d="M26.276 14.164L26.2006 14.108L26.2216 14.2C26.2257 14.22 26.2551 14.232 26.2719 14.216L26.276 14.212C26.2928 14.196 26.2928 14.176 26.276 14.164Z" fill="#3A7741"/>
<path d="M26.181 14.88L26.0894 14.904L26.1768 14.944C26.1976 14.952 26.2226 14.94 26.2226 14.916V14.908C26.2226 14.892 26.2018 14.876 26.181 14.88Z" fill="#3A7741"/>
<path d="M26.5959 14.712C26.5835 14.728 26.5753 14.748 26.5671 14.764C26.5177 14.852 26.46 14.94 26.3941 15.02V15.336C26.5012 15.28 26.6 15.212 26.6947 15.132C26.6988 15.044 26.7071 14.944 26.7071 14.9C26.7071 14.848 26.7565 14.708 26.7935 14.608C26.7194 14.608 26.6412 14.644 26.5959 14.712Z" fill="#1A1F33"/>
<path d="M26.6824 15.656C26.7029 15.748 26.7112 15.844 26.7112 15.944C26.7112 16.224 26.6288 16.484 26.4888 16.696H26.8429C27.1312 16.488 27.3206 16.1 27.3206 15.656H26.6824Z" fill="#1A1F33"/>
<path d="M26.5712 16.656H23.2894V17.136H26.5712V16.656Z" fill="#A57767"/>
<path d="M29.2476 16.656H26.5712V17.136H29.2476V16.656Z" fill="#1B2238"/>
<path d="M21.8235 18.156H20.1435C19.5176 18.156 19.007 17.66 19.007 17.052C19.007 16.444 19.5176 15.948 20.1435 15.948H21.8235C22.4494 15.948 22.96 16.444 22.96 17.052C22.96 17.66 22.4494 18.156 21.8235 18.156Z" fill="#1B3B52"/>
</g>
<defs>
<clipPath id="clip0_43_657">
<rect width="41.1765" height="40" rx="10" fill="white"/>
</clipPath>
</defs>
</svg>
