<svg width="20" height="24" viewBox="0 0 20 24" fill="none" xmlns="http://www.w3.org/2000/svg">
<path d="M20 19.1137H0V16.3623L1.73635 14.3542V9.55689C1.73635 4.27873 5.43611 0 9.99998 0C14.5638 0 18.2636 4.27873 18.2636 9.55686V14.3542L20 16.3623L20 19.1137ZM0.90911 18.0624H19.0909V16.8007L17.3546 14.7926V9.55684C17.3546 4.85936 14.0618 1.0513 10 1.0513C5.93822 1.0513 2.64546 4.85936 2.64546 9.55684V14.7895L0.90911 16.7976V18.0624ZM10 23.172C8.3164 23.1696 6.95166 21.5942 6.94545 19.6485V19.6478C6.94448 19.6164 6.94395 19.5794 6.94395 19.5423C6.94395 19.1311 7.01126 18.7381 7.13374 18.3772L7.12729 18.3988L7.97545 18.7773C7.89606 19.0071 7.85002 19.2736 7.85002 19.5524C7.85002 19.5757 7.85034 19.5988 7.851 19.6217L7.8509 19.6184V19.6352C7.8509 21.0056 8.81144 22.1164 9.99636 22.1164C11.1813 22.1164 12.1418 21.0056 12.1418 19.6352V19.6184C12.1424 19.5988 12.1427 19.5756 12.1427 19.5525C12.1427 19.2736 12.0967 19.0072 12.0129 18.7628L12.0173 18.7773L12.8655 18.3988C12.9815 18.7381 13.0488 19.1312 13.0488 19.5424C13.0488 19.5795 13.0482 19.6164 13.0471 19.6532L13.0473 19.6479C13.0411 21.5913 11.6805 23.1649 10.0006 23.172H10L10 23.172Z" fill="#3E4B4F" fill-opacity="0.9"/>
</svg>
