<svg width="42" height="40" viewBox="0 0 42 40" fill="none" xmlns="http://www.w3.org/2000/svg">
<g clip-path="url(#clip0_43_1205)">
<path d="M41.1765 0H0V40H41.1765V0Z" fill="#EFA1D0"/>
<path opacity="0.15" d="M25.7723 11.6L26.9706 8.536L30.5859 7.88" stroke="#262626" stroke-miterlimit="10" stroke-linecap="round" stroke-linejoin="round"/>
<path opacity="0.15" d="M10.7635 27.368H31.78" stroke="#262626" stroke-miterlimit="10" stroke-linecap="round" stroke-linejoin="round"/>
<g opacity="0.6">
<path opacity="0.15" d="M28.8482 27.368H23.1041L21.3665 15.204H30.5859L28.8482 27.368Z" stroke="#262626" stroke-miterlimit="10" stroke-linecap="round" stroke-linejoin="round"/>
<path opacity="0.15" d="M31.78 15.204H20.1106V14.732C20.1106 13.812 20.8806 13.064 21.8277 13.064H30.0588C31.0059 13.064 31.7759 13.812 31.7759 14.732V15.204H31.78Z" stroke="#262626" stroke-miterlimit="10" stroke-linecap="round" stroke-linejoin="round"/>
<path opacity="0.15" d="M30.1041 13.064H21.7865V13.028C21.7865 12.236 22.4453 11.596 23.2606 11.596H28.6341C29.4494 11.596 30.1082 12.236 30.1082 13.028V13.064H30.1041Z" fill="white"/>
<path opacity="0.15" d="M30.1041 13.064H21.7865V13.028C21.7865 12.236 22.4453 11.596 23.2606 11.596H28.6341C29.4494 11.596 30.1082 12.236 30.1082 13.028V13.064H30.1041Z" stroke="#262626" stroke-miterlimit="10" stroke-linecap="round" stroke-linejoin="round"/>
<path opacity="0.15" d="M29.5318 22.584L30.0835 18.704H21.8688L22.4206 22.584H29.5318Z" fill="white"/>
<path opacity="0.15" d="M29.5318 22.584L30.0835 18.704H21.8688L22.4206 22.584H29.5318Z" stroke="#262626" stroke-miterlimit="10" stroke-linecap="round" stroke-linejoin="round"/>
</g>
<g opacity="0.6">
<path opacity="0.6" d="M12.3941 20.644H12.5835" stroke="#DF5E4C" stroke-miterlimit="10" stroke-linecap="round" stroke-linejoin="round"/>
<path opacity="0.6" d="M12.4889 20.552V20.736" stroke="#DF5E4C" stroke-miterlimit="10" stroke-linecap="round" stroke-linejoin="round"/>
</g>
<g opacity="0.67">
<path opacity="0.67" d="M31.78 21.42H31.9694" stroke="#DF5E4C" stroke-miterlimit="10" stroke-linecap="round" stroke-linejoin="round"/>
<path opacity="0.67" d="M31.8748 21.328V21.512" stroke="#DF5E4C" stroke-miterlimit="10" stroke-linecap="round" stroke-linejoin="round"/>
</g>
<path d="M10.4053 20.644H9.9935" stroke="#F7931E" stroke-miterlimit="10" stroke-linecap="round" stroke-linejoin="round"/>
<path d="M10.1994 20.444V20.844" stroke="#F7931E" stroke-miterlimit="10" stroke-linecap="round" stroke-linejoin="round"/>
<g opacity="0.7">
<path opacity="0.7" d="M30.7959 20H30.3718" stroke="#F7931E" stroke-miterlimit="10" stroke-linecap="round" stroke-linejoin="round"/>
<path opacity="0.7" d="M30.5858 19.792V20.208" stroke="#F7931E" stroke-miterlimit="10" stroke-linecap="round" stroke-linejoin="round"/>
</g>
<g opacity="0.4">
<path opacity="0.4" d="M11.8794 24.18H12.2912" stroke="#622F2F" stroke-miterlimit="10" stroke-linecap="round" stroke-linejoin="round"/>
<path opacity="0.4" d="M12.0853 23.98V24.38" stroke="#622F2F" stroke-miterlimit="10" stroke-linecap="round" stroke-linejoin="round"/>
</g>
<g opacity="0.6">
<path opacity="0.6" d="M27.6047 24.18H27.9094" stroke="#8DC838" stroke-miterlimit="10" stroke-linecap="round"/>
<path opacity="0.6" d="M27.757 24.032V24.328" stroke="#8DC838" stroke-miterlimit="10" stroke-linecap="round"/>
</g>
<path d="M30.5859 23.016C30.6951 23.016 30.7835 22.9301 30.7835 22.824C30.7835 22.718 30.6951 22.632 30.5859 22.632C30.4767 22.632 30.3882 22.718 30.3882 22.824C30.3882 22.9301 30.4767 23.016 30.5859 23.016Z" stroke="#8DC838" stroke-miterlimit="10"/>
<path opacity="0.8" d="M11.4635 22.356C11.55 22.356 11.62 22.2879 11.62 22.204C11.62 22.12 11.55 22.052 11.4635 22.052C11.3771 22.052 11.3071 22.12 11.3071 22.204C11.3071 22.2879 11.3771 22.356 11.4635 22.356Z" stroke="#8DC838" stroke-miterlimit="10"/>
<path opacity="0.74" d="M30.0836 25.388C30.1586 25.388 30.2195 25.3289 30.2195 25.256C30.2195 25.1831 30.1586 25.124 30.0836 25.124C30.0085 25.124 29.9477 25.1831 29.9477 25.256C29.9477 25.3289 30.0085 25.388 30.0836 25.388Z" stroke="#622F2F" stroke-miterlimit="10" stroke-linecap="round" stroke-linejoin="round"/>
<path d="M24.1459 27.36H17.0306C15.5606 27.36 14.3706 26.208 14.3706 24.78V24.776C14.3706 24.524 14.5806 24.316 14.8441 24.316H26.3365C26.5959 24.316 26.81 24.524 26.81 24.78V24.776C26.8059 26.204 25.6159 27.36 24.1459 27.36Z" fill="#FFAA2B"/>
<g opacity="0.25">
<path opacity="0.62" d="M17.047 24.78C17.047 24.524 17.257 24.316 17.5206 24.316H14.8441C14.5847 24.316 14.3706 24.524 14.3706 24.776V24.78C14.3706 26.208 15.5606 27.36 17.0306 27.36H19.707C18.237 27.36 17.047 26.208 17.047 24.78Z" fill="#491200"/>
<path opacity="0.25" d="M14.3785 24.804H26.7932C26.748 24.564 26.5585 24.38 26.3321 24.38H14.8438C14.6174 24.376 14.428 24.56 14.3785 24.804Z" fill="#EAA772"/>
</g>
<path d="M24.1459 27.36H17.0306C15.5606 27.36 14.3706 26.208 14.3706 24.78V24.776C14.3706 24.524 14.5806 24.316 14.8441 24.316H26.3365C26.5959 24.316 26.81 24.524 26.81 24.78V24.776C26.8059 26.204 25.6159 27.36 24.1459 27.36Z" stroke="#442F2F" stroke-miterlimit="10" stroke-linecap="round" stroke-linejoin="round"/>
<path d="M21.0865 15.208H20.0612C16.9112 15.208 14.3747 16.916 14.3747 18.976V18.972C14.3747 19.416 14.9059 19.768 15.5812 19.768H25.5706C26.2459 19.768 26.81 19.416 26.81 18.972C26.8059 16.916 24.2365 15.208 21.0865 15.208Z" fill="#EAA772"/>
<path d="M21.0865 15.208H20.0612C16.9112 15.208 14.3747 16.916 14.3747 18.976V18.972C14.3747 19.416 14.9059 19.768 15.5812 19.768H25.5706C26.2459 19.768 26.81 19.416 26.81 18.972C26.8059 16.916 24.2365 15.208 21.0865 15.208Z" fill="#FFAA2B"/>
<g opacity="0.3">
<path opacity="0.62" d="M21.9223 15.252C21.6506 15.224 21.3706 15.212 21.0823 15.212H20.057C16.907 15.212 14.3706 16.92 14.3706 18.98C14.3706 19.42 14.9018 19.772 15.577 19.772H17.1953V19.096C17.5782 17.048 19.2582 15.516 21.9223 15.252Z" fill="#491200"/>
</g>
<path d="M21.0865 15.208H20.0612C16.9112 15.208 14.3747 16.916 14.3747 18.976V18.972C14.3747 19.416 14.9059 19.768 15.5812 19.768H25.5706C26.2459 19.768 26.81 19.416 26.81 18.972C26.8059 16.916 24.2365 15.208 21.0865 15.208Z" stroke="#442F2F" stroke-miterlimit="10" stroke-linecap="round" stroke-linejoin="round"/>
<path d="M27.0571 23.012C27.0571 23.732 26.4559 24.316 25.7147 24.316H15.4659C14.7247 24.316 14.1235 23.732 14.1235 23.012C14.1235 22.292 14.7247 21.708 15.4659 21.708H25.7147C26.4559 21.708 27.0571 22.292 27.0571 23.012Z" fill="#5B3E40"/>
<g opacity="0.6">
<path opacity="0.6" d="M14.8194 23.4161C14.8717 23.4161 14.9141 23.3749 14.9141 23.3241C14.9141 23.2733 14.8717 23.2321 14.8194 23.2321C14.7671 23.2321 14.7247 23.2733 14.7247 23.3241C14.7247 23.3749 14.7671 23.4161 14.8194 23.4161Z" fill="#442F2F"/>
<path opacity="0.6" d="M15.4577 23.828C15.5099 23.828 15.5524 23.7868 15.5524 23.736C15.5524 23.6852 15.5099 23.644 15.4577 23.644C15.4054 23.644 15.3629 23.6852 15.3629 23.736C15.3629 23.7868 15.4054 23.828 15.4577 23.828Z" fill="#442F2F"/>
<path opacity="0.6" d="M15.0541 23.828C15.1064 23.828 15.1488 23.7868 15.1488 23.736C15.1488 23.6852 15.1064 23.644 15.0541 23.644C15.0018 23.644 14.9594 23.6852 14.9594 23.736C14.9594 23.7868 15.0018 23.828 15.0541 23.828Z" fill="#442F2F"/>
<path opacity="0.6" d="M14.8194 23.1C14.8717 23.1 14.9141 23.0589 14.9141 23.008C14.9141 22.9572 14.8717 22.916 14.8194 22.916C14.7671 22.916 14.7247 22.9572 14.7247 23.008C14.7247 23.0589 14.7671 23.1 14.8194 23.1Z" fill="#442F2F"/>
<path opacity="0.6" d="M15.3629 23.324C15.4152 23.324 15.4576 23.2828 15.4576 23.232C15.4576 23.1812 15.4152 23.14 15.3629 23.14C15.3106 23.14 15.2682 23.1812 15.2682 23.232C15.2682 23.2828 15.3106 23.324 15.3629 23.324Z" fill="#442F2F"/>
<path opacity="0.6" d="M16.8453 23.6C16.8975 23.6 16.94 23.5589 16.94 23.508C16.94 23.4572 16.8975 23.416 16.8453 23.416C16.793 23.416 16.7505 23.4572 16.7505 23.508C16.7505 23.5589 16.793 23.6 16.8453 23.6Z" fill="#442F2F"/>
<path opacity="0.6" d="M18.587 23.4161C18.6393 23.4161 18.6818 23.3749 18.6818 23.3241C18.6818 23.2733 18.6393 23.2321 18.587 23.2321C18.5348 23.2321 18.4923 23.2733 18.4923 23.3241C18.4923 23.3749 18.5348 23.4161 18.587 23.4161Z" fill="#442F2F"/>
<path opacity="0.6" d="M25.1835 23.828C25.2358 23.828 25.2782 23.7868 25.2782 23.736C25.2782 23.6852 25.2358 23.644 25.1835 23.644C25.1312 23.644 25.0888 23.6852 25.0888 23.736C25.0888 23.7868 25.1312 23.828 25.1835 23.828Z" fill="#442F2F"/>
<path opacity="0.6" d="M24.5988 23.828C24.6511 23.828 24.6935 23.7868 24.6935 23.736C24.6935 23.6852 24.6511 23.644 24.5988 23.644C24.5465 23.644 24.5041 23.6852 24.5041 23.736C24.5041 23.7868 24.5465 23.828 24.5988 23.828Z" fill="#442F2F"/>
<path opacity="0.6" d="M24.2364 23.828C24.2887 23.828 24.3311 23.7868 24.3311 23.736C24.3311 23.6852 24.2887 23.644 24.2364 23.644C24.1841 23.644 24.1417 23.6852 24.1417 23.736C24.1417 23.7868 24.1841 23.828 24.2364 23.828Z" fill="#442F2F"/>
<path opacity="0.6" d="M24.4259 23.6C24.4782 23.6 24.5206 23.5589 24.5206 23.508C24.5206 23.4572 24.4782 23.416 24.4259 23.416C24.3736 23.416 24.3312 23.4572 24.3312 23.508C24.3312 23.5589 24.3736 23.6 24.4259 23.6Z" fill="#442F2F"/>
<path opacity="0.6" d="M26.1676 23.1C26.2199 23.1 26.2623 23.0589 26.2623 23.008C26.2623 22.9572 26.2199 22.916 26.1676 22.916C26.1153 22.916 26.0729 22.9572 26.0729 23.008C26.0729 23.0589 26.1153 23.1 26.1676 23.1Z" fill="#442F2F"/>
<path opacity="0.6" d="M26.0729 23.6C26.1252 23.6 26.1677 23.5589 26.1677 23.508C26.1677 23.4572 26.1252 23.416 26.0729 23.416C26.0207 23.416 25.9782 23.4572 25.9782 23.508C25.9782 23.5589 26.0207 23.6 26.0729 23.6Z" fill="#442F2F"/>
<path opacity="0.6" d="M25.2782 23.008C25.3305 23.008 25.3729 22.9668 25.3729 22.916C25.3729 22.8652 25.3305 22.824 25.2782 22.824C25.2259 22.824 25.1835 22.8652 25.1835 22.916C25.1835 22.9668 25.2259 23.008 25.2782 23.008Z" fill="#442F2F"/>
<path opacity="0.6" d="M21.8894 23.828C21.9416 23.828 21.9841 23.7868 21.9841 23.736C21.9841 23.6852 21.9416 23.644 21.8894 23.644C21.8371 23.644 21.7946 23.6852 21.7946 23.736C21.7946 23.7868 21.8371 23.828 21.8894 23.828Z" fill="#442F2F"/>
<path opacity="0.6" d="M21.0452 23.828C21.0975 23.828 21.1399 23.7868 21.1399 23.736C21.1399 23.6852 21.0975 23.644 21.0452 23.644C20.9929 23.644 20.9505 23.6852 20.9505 23.736C20.9505 23.7868 20.9929 23.828 21.0452 23.828Z" fill="#442F2F"/>
<path opacity="0.6" d="M21.3788 23.828C21.4311 23.828 21.4735 23.7868 21.4735 23.736C21.4735 23.6852 21.4311 23.644 21.3788 23.644C21.3265 23.644 21.2841 23.6852 21.2841 23.736C21.2841 23.7868 21.3265 23.828 21.3788 23.828Z" fill="#442F2F"/>
<path opacity="0.6" d="M20.1106 23.828C20.1629 23.828 20.2053 23.7868 20.2053 23.736C20.2053 23.6852 20.1629 23.644 20.1106 23.644C20.0583 23.644 20.0159 23.6852 20.0159 23.736C20.0159 23.7868 20.0583 23.828 20.1106 23.828Z" fill="#442F2F"/>
<path opacity="0.6" d="M19.707 23.688C19.7593 23.688 19.8017 23.6468 19.8017 23.596C19.8017 23.5452 19.7593 23.504 19.707 23.504C19.6547 23.504 19.6123 23.5452 19.6123 23.596C19.6123 23.6468 19.6547 23.688 19.707 23.688Z" fill="#442F2F"/>
<path opacity="0.6" d="M18.4553 23.78C18.5076 23.78 18.55 23.7388 18.55 23.688C18.55 23.6372 18.5076 23.596 18.4553 23.596C18.403 23.596 18.3606 23.6372 18.3606 23.688C18.3606 23.7388 18.403 23.78 18.4553 23.78Z" fill="#442F2F"/>
</g>
<g opacity="0.15">
<path d="M16.73 23.612V22.412C16.73 22.024 17.0553 21.708 17.4547 21.708H15.4618C14.7206 21.708 14.1194 22.292 14.1194 23.012C14.1194 23.732 14.7206 24.316 15.4618 24.316H17.4588C17.0553 24.316 16.73 24 16.73 23.612Z" fill="#3E0004"/>
<path opacity="0.15" d="M25.7105 21.908H15.4658C14.7246 21.908 14.1234 22.492 14.1234 23.212C14.1234 23.232 14.1234 23.248 14.1234 23.268C14.424 23.196 14.8234 23.128 15.2187 23.128C15.6222 23.128 15.8075 23.196 16.0258 23.276C16.2564 23.36 16.5158 23.452 17.0058 23.452C17.4958 23.452 17.7552 23.356 17.9858 23.276C18.204 23.196 18.3893 23.128 18.7928 23.128C19.1964 23.128 19.3816 23.196 19.5999 23.276C19.8305 23.36 20.0899 23.452 20.5799 23.452C21.0699 23.452 21.3293 23.356 21.5599 23.272C21.7781 23.192 21.9634 23.124 22.3669 23.124C22.7705 23.124 22.9558 23.192 23.174 23.272C23.4046 23.356 23.664 23.452 24.154 23.452C24.644 23.452 24.9034 23.356 25.134 23.272C25.3522 23.192 25.5375 23.124 25.9411 23.124C26.3405 23.124 26.5258 23.192 26.7399 23.272C26.8305 23.304 26.9334 23.344 27.0528 23.372C27.0611 23.32 27.0652 23.264 27.0652 23.208C27.0569 22.492 26.4558 21.908 25.7105 21.908Z" fill="#5B3E40"/>
</g>
<path d="M27.0571 23.012C27.0571 23.732 26.4559 24.316 25.7147 24.316H15.4659C14.7247 24.316 14.1235 23.732 14.1235 23.012C14.1235 22.292 14.7247 21.708 15.4659 21.708H25.7147C26.4559 21.708 27.0571 22.292 27.0571 23.012Z" stroke="#442F2F" stroke-miterlimit="10" stroke-linecap="round" stroke-linejoin="round"/>
<path d="M26.8059 21.416C26.8059 21.576 26.6741 21.704 26.5094 21.704H14.667C14.5023 21.704 14.3706 21.576 14.3706 21.416V20.74C14.3706 20.58 14.5023 20.452 14.667 20.452H26.5053C26.67 20.452 26.8018 20.58 26.8018 20.74V21.416H26.8059Z" fill="#D83634"/>
<path d="M26.8059 21.416C26.8059 21.576 26.6741 21.704 26.5094 21.704H14.667C14.5023 21.704 14.3706 21.576 14.3706 21.416V20.74C14.3706 20.58 14.5023 20.452 14.667 20.452H26.5053C26.67 20.452 26.8018 20.58 26.8018 20.74V21.416H26.8059Z" fill="#D83634"/>
<path opacity="0.3" d="M16.6312 21.416V20.74C16.6312 20.58 16.7629 20.452 16.9276 20.452H14.667C14.5023 20.452 14.3706 20.58 14.3706 20.74V21.416C14.3706 21.576 14.5023 21.704 14.667 21.704H16.9276C16.7629 21.708 16.6312 21.576 16.6312 21.416Z" fill="#D83634"/>
<path opacity="0.2" d="M22.3753 20.448H21.4406V21.704H22.3753V20.448Z" fill="white"/>
<path opacity="0.2" d="M22.9353 20.448H22.6635V21.704H22.9353V20.448Z" fill="white"/>
<path d="M26.8059 21.416C26.8059 21.576 26.6741 21.704 26.5094 21.704H14.667C14.5023 21.704 14.3706 21.576 14.3706 21.416V20.74C14.3706 20.58 14.5023 20.452 14.667 20.452H26.5053C26.67 20.452 26.8018 20.58 26.8018 20.74V21.416H26.8059Z" stroke="#442F2F" stroke-miterlimit="10" stroke-linecap="round" stroke-linejoin="round"/>
<path d="M13.4441 21.328C13.9094 20.388 15.0706 19.772 16.3635 19.772H24.8171C26.11 19.772 27.2671 20.392 27.7365 21.328C26.8429 21.328 26.8429 20.556 25.9494 20.556C25.0559 20.556 25.0559 21.328 24.1624 21.328C23.2688 21.328 23.2688 20.556 22.3753 20.556C21.4818 20.556 21.4818 21.328 20.5882 21.328C19.6947 21.328 19.6947 20.556 18.8012 20.556C17.9077 20.556 17.9077 21.328 17.0141 21.328C16.1206 21.328 16.1206 20.556 15.2271 20.556C14.3335 20.556 14.3377 21.328 13.4441 21.328Z" fill="#8DC838"/>
<path d="M26.11 20C25.6159 19.756 25.4265 19.768 24.8129 19.768H17.2529H17.0471H16.3594C15.0665 19.768 13.9094 20.388 13.44 21.324C14.3335 21.324 14.3335 20.552 15.2271 20.552C15.7994 20.552 16.2565 21.016 16.5653 21.244L16.6641 21.136C16.8494 20.932 16.9935 20.696 17.0924 20.444C17.1994 20.18 17.4588 20.004 17.7512 20.004L26.11 20Z" fill="#73B727"/>
<path d="M13.4441 21.328C13.9094 20.388 15.0706 19.772 16.3635 19.772H24.8171C26.11 19.772 27.2671 20.392 27.7365 21.328C26.8429 21.328 26.8429 20.556 25.9494 20.556C25.0559 20.556 25.0559 21.328 24.1624 21.328C23.2688 21.328 23.2688 20.556 22.3753 20.556C21.4818 20.556 21.4818 21.328 20.5882 21.328C19.6947 21.328 19.6947 20.556 18.8012 20.556C17.9077 20.556 17.9077 21.328 17.0141 21.328C16.1206 21.328 16.1206 20.556 15.2271 20.556C14.3335 20.556 14.3377 21.328 13.4441 21.328Z" stroke="#442F2F" stroke-miterlimit="10" stroke-linecap="round" stroke-linejoin="round"/>
<path d="M13.5306 22.584C13.4895 22.768 13.7036 22.924 13.9218 22.868C14.2636 22.78 14.7412 22.684 15.2189 22.684C16.1124 22.684 16.1124 23.008 17.0059 23.008C17.8995 23.008 17.8995 22.684 18.793 22.684C19.6865 22.684 19.6865 23.008 20.58 23.008C21.4736 23.008 21.4736 22.684 22.3671 22.684C23.2606 22.684 23.2606 23.008 24.1542 23.008C25.0477 23.008 25.0477 22.684 25.9371 22.684C26.6577 22.684 26.7853 22.896 27.2877 22.976C27.4977 23.012 27.6871 22.856 27.6459 22.684L27.6089 22.608C27.3412 22.06 26.6906 21.7 25.97 21.7H15.1571C14.4489 21.708 13.8106 22.052 13.5306 22.584Z" fill="#FBB03B"/>
<path d="M27.0118 21.988C26.7153 21.812 26.353 21.708 25.9659 21.708H17.2324H16.9277H16.6642H15.1571C14.4489 21.708 13.8065 22.052 13.5306 22.588C13.4895 22.772 13.7036 22.928 13.9218 22.872C14.2636 22.784 14.7412 22.688 15.2189 22.688C15.6553 22.688 15.8777 22.764 16.0959 22.844L16.1783 22.78C16.2936 22.692 16.4253 22.54 16.5365 22.392C16.73 22.136 17.0389 21.988 17.3642 21.988H27.0118Z" fill="#F99A29"/>
<path d="M13.5306 22.584C13.4895 22.768 13.7036 22.924 13.9218 22.868C14.2636 22.78 14.7412 22.684 15.2189 22.684C16.1124 22.684 16.1124 23.008 17.0059 23.008C17.8995 23.008 17.8995 22.684 18.793 22.684C19.6865 22.684 19.6865 23.008 20.58 23.008C21.4736 23.008 21.4736 22.684 22.3671 22.684C23.2606 22.684 23.2606 23.008 24.1542 23.008C25.0477 23.008 25.0477 22.684 25.9371 22.684C26.6577 22.684 26.7853 22.896 27.2877 22.976C27.4977 23.012 27.6871 22.856 27.6459 22.684L27.6089 22.608C27.3412 22.06 26.6906 21.7 25.97 21.7H15.1571C14.4489 21.708 13.8106 22.052 13.5306 22.584Z" stroke="#442F2F" stroke-miterlimit="10" stroke-linecap="round" stroke-linejoin="round"/>
<path d="M17.1953 26.2C16.94 26.2 16.73 26 16.73 25.748V24.316H17.6565V25.748C17.6606 25.996 17.4506 26.2 17.1953 26.2Z" stroke="#442F2F" stroke-miterlimit="10" stroke-linecap="round" stroke-linejoin="round"/>
<path d="M17.1953 26.2C16.94 26.2 16.73 26 16.73 25.748V24.316H17.6565V25.748C17.6606 25.996 17.4506 26.2 17.1953 26.2Z" fill="#D83634"/>
<path d="M18.7765 25.288C18.5706 25.288 18.4018 25.124 18.4018 24.924V24.312H19.1471V24.924C19.1512 25.128 18.9824 25.288 18.7765 25.288Z" fill="#D83634"/>
<path d="M18.7765 25.288C18.5706 25.288 18.4018 25.124 18.4018 24.924V24.312H19.1471V24.924C19.1512 25.128 18.9824 25.288 18.7765 25.288Z" stroke="#442F2F" stroke-miterlimit="10" stroke-linecap="round" stroke-linejoin="round"/>
<path d="M17.1953 26.2C16.94 26.2 16.73 26 16.73 25.748V24.316H17.6565V25.748C17.6606 25.996 17.4506 26.2 17.1953 26.2Z" stroke="#442F2F" stroke-miterlimit="10" stroke-linecap="round" stroke-linejoin="round"/>
<path d="M23.2936 26.472C22.9106 26.472 22.5977 26.168 22.5977 25.796V24.316H23.9895V25.796C23.9895 26.172 23.6806 26.472 23.2936 26.472Z" fill="#D83634"/>
<path d="M23.2936 26.472C22.9106 26.472 22.5977 26.168 22.5977 25.796V24.316H23.9895V25.796C23.9895 26.172 23.6806 26.472 23.2936 26.472Z" stroke="#442F2F" stroke-miterlimit="10" stroke-linecap="round" stroke-linejoin="round"/>
<path d="M16.1618 25.736C16.2436 25.736 16.31 25.6715 16.31 25.592C16.31 25.5125 16.2436 25.448 16.1618 25.448C16.0799 25.448 16.0135 25.5125 16.0135 25.592C16.0135 25.6715 16.0799 25.736 16.1618 25.736Z" fill="#442F2F"/>
<path d="M24.5453 26.552C24.5908 26.552 24.6277 26.5162 24.6277 26.472C24.6277 26.4278 24.5908 26.392 24.5453 26.392C24.4998 26.392 24.463 26.4278 24.463 26.472C24.463 26.5162 24.4998 26.552 24.5453 26.552Z" fill="#442F2F"/>
<path d="M20.4276 26.492C20.4617 26.492 20.4894 26.4651 20.4894 26.432C20.4894 26.3988 20.4617 26.372 20.4276 26.372C20.3935 26.372 20.3659 26.3988 20.3659 26.432C20.3659 26.4651 20.3935 26.492 20.4276 26.492Z" fill="#442F2F"/>
<path d="M19.9212 25.616C20.0099 25.616 20.0818 25.5462 20.0818 25.46C20.0818 25.3739 20.0099 25.304 19.9212 25.304C19.8325 25.304 19.7606 25.3739 19.7606 25.46C19.7606 25.5462 19.8325 25.616 19.9212 25.616Z" fill="#442F2F"/>
<path d="M18.8423 26.288C18.8764 26.288 18.9041 26.2612 18.9041 26.228C18.9041 26.1949 18.8764 26.168 18.8423 26.168C18.8082 26.168 18.7806 26.1949 18.7806 26.228C18.7806 26.2612 18.8082 26.288 18.8423 26.288Z" fill="#442F2F"/>
<path d="M21.6753 26.08C21.8141 26.08 21.9265 25.9707 21.9265 25.836C21.9265 25.7012 21.8141 25.592 21.6753 25.592C21.5366 25.592 21.4242 25.7012 21.4242 25.836C21.4242 25.9707 21.5366 26.08 21.6753 26.08Z" fill="#442F2F"/>
<path d="M24.7388 25.64C24.8025 25.64 24.8541 25.5899 24.8541 25.528C24.8541 25.4662 24.8025 25.416 24.7388 25.416C24.6752 25.416 24.6235 25.4662 24.6235 25.528C24.6235 25.5899 24.6752 25.64 24.7388 25.64Z" fill="#442F2F"/>
<path d="M20.9753 25.368C21.0231 25.368 21.0618 25.3304 21.0618 25.284C21.0618 25.2376 21.0231 25.2 20.9753 25.2C20.9276 25.2 20.8889 25.2376 20.8889 25.284C20.8889 25.3304 20.9276 25.368 20.9753 25.368Z" fill="#442F2F"/>
<path d="M17.6194 17.108C17.7081 17.108 17.78 17.0381 17.78 16.952C17.78 16.8658 17.7081 16.796 17.6194 16.796C17.5307 16.796 17.4588 16.8658 17.4588 16.952C17.4588 17.0381 17.5307 17.108 17.6194 17.108Z" fill="#442F2F"/>
<path d="M20.0818 17.7079C20.1705 17.7079 20.2424 17.6381 20.2424 17.5519C20.2424 17.4658 20.1705 17.3959 20.0818 17.3959C19.9931 17.3959 19.9212 17.4658 19.9212 17.5519C19.9212 17.6381 19.9931 17.7079 20.0818 17.7079Z" fill="#442F2F"/>
<path d="M21.0082 18.164C21.0537 18.164 21.0905 18.1282 21.0905 18.084C21.0905 18.0398 21.0537 18.004 21.0082 18.004C20.9627 18.004 20.9258 18.0398 20.9258 18.084C20.9258 18.1282 20.9627 18.164 21.0082 18.164Z" fill="#442F2F"/>
<path d="M23.9523 17.26C24.0206 17.26 24.0759 17.2062 24.0759 17.14C24.0759 17.0737 24.0206 17.02 23.9523 17.02C23.8841 17.02 23.8288 17.0737 23.8288 17.14C23.8288 17.2062 23.8841 17.26 23.9523 17.26Z" fill="#442F2F"/>
<path d="M20.9259 16.424C21.0646 16.424 21.1771 16.3147 21.1771 16.18C21.1771 16.0452 21.0646 15.936 20.9259 15.936C20.7872 15.936 20.6747 16.0452 20.6747 16.18C20.6747 16.3147 20.7872 16.424 20.9259 16.424Z" fill="#442F2F"/>
<path d="M22.8488 16.864C22.9557 16.864 23.0423 16.7798 23.0423 16.676C23.0423 16.5721 22.9557 16.488 22.8488 16.488C22.7419 16.488 22.6552 16.5721 22.6552 16.676C22.6552 16.7798 22.7419 16.864 22.8488 16.864Z" fill="#442F2F"/>
<path d="M18.6818 17.6919C18.7364 17.6919 18.7806 17.649 18.7806 17.5959C18.7806 17.5429 18.7364 17.4999 18.6818 17.4999C18.6272 17.4999 18.583 17.5429 18.583 17.5959C18.583 17.649 18.6272 17.6919 18.6818 17.6919Z" fill="#442F2F"/>
<path d="M21.6753 17.3C21.7663 17.3 21.84 17.2283 21.84 17.14C21.84 17.0516 21.7663 16.98 21.6753 16.98C21.5843 16.98 21.5106 17.0516 21.5106 17.14C21.5106 17.2283 21.5843 17.3 21.6753 17.3Z" fill="#442F2F"/>
<path d="M19.7771 16.548C19.8112 16.548 19.8389 16.5211 19.8389 16.488C19.8389 16.4549 19.8112 16.428 19.7771 16.428C19.743 16.428 19.7153 16.4549 19.7153 16.488C19.7153 16.5211 19.743 16.548 19.7771 16.548Z" fill="#442F2F"/>
<path d="M17.9982 18.2479C18.0323 18.2479 18.06 18.2211 18.06 18.1879C18.06 18.1548 18.0323 18.1279 17.9982 18.1279C17.9641 18.1279 17.9365 18.1548 17.9365 18.1879C17.9365 18.2211 17.9641 18.2479 17.9982 18.2479Z" fill="#442F2F"/>
<path d="M24.6976 17.328C24.7158 17.328 24.7306 17.3136 24.7306 17.296C24.7306 17.2783 24.7158 17.264 24.6976 17.264C24.6794 17.264 24.6647 17.2783 24.6647 17.296C24.6647 17.3136 24.6794 17.328 24.6976 17.328Z" fill="#442F2F"/>
<path d="M18.7806 16.484C18.8147 16.484 18.8423 16.4571 18.8423 16.424C18.8423 16.3909 18.8147 16.364 18.7806 16.364C18.7465 16.364 18.7188 16.3909 18.7188 16.424C18.7188 16.4571 18.7465 16.484 18.7806 16.484Z" fill="#442F2F"/>
<path d="M23.4088 18.164C23.4429 18.164 23.4706 18.1371 23.4706 18.104C23.4706 18.0708 23.4429 18.044 23.4088 18.044C23.3747 18.044 23.347 18.0708 23.347 18.104C23.347 18.1371 23.3747 18.164 23.4088 18.164Z" fill="#442F2F"/>
<path d="M22.433 17.6C22.4603 17.6 22.4824 17.5785 22.4824 17.552C22.4824 17.5255 22.4603 17.504 22.433 17.504C22.4057 17.504 22.3835 17.5255 22.3835 17.552C22.3835 17.5785 22.4057 17.6 22.433 17.6Z" fill="#442F2F"/>
<path d="M14.733 15.936L15.0624 16.18" stroke="#F7931E" stroke-miterlimit="10" stroke-linecap="round" stroke-linejoin="round"/>
<path d="M15.1036 15.436L15.4124 15.896" stroke="#F7931E" stroke-miterlimit="10" stroke-linecap="round" stroke-linejoin="round"/>
<path d="M15.7912 15.152V15.704" stroke="#F7931E" stroke-miterlimit="10" stroke-linecap="round" stroke-linejoin="round"/>
</g>
<defs>
<clipPath id="clip0_43_1205">
<rect width="41.1765" height="40" rx="10" fill="white"/>
</clipPath>
</defs>
</svg>
