<svg width="42" height="40" viewBox="0 0 42 40" fill="none" xmlns="http://www.w3.org/2000/svg">
<g clip-path="url(#clip0_43_1084)">
<path d="M41.1765 0H0V40H41.1765V0Z" fill="#F0EC95"/>
<path d="M27.753 27.76H16.3882V11.92H27.753C28.1606 11.92 28.4941 12.232 28.4941 12.628V27.028C28.4941 27.428 28.1606 27.76 27.753 27.76Z" fill="#0A7362"/>
<path d="M26.1471 28.08H25.5706C25.4553 28.08 25.3647 27.992 25.3647 27.88V11.8C25.3647 11.688 25.4553 11.6 25.5706 11.6H26.1471C26.2624 11.6 26.353 11.688 26.353 11.8V27.88C26.353 27.992 26.2624 28.08 26.1471 28.08Z" fill="#0A7362"/>
<path d="M18.9 29.588L17.6647 28.92V27.76H18.9V29.588Z" fill="#0A7362"/>
<path d="M27.3412 27.1599H15.9765V11.3199H27.3412C27.7488 11.3199 28.0824 11.6319 28.0824 12.0279V26.4279C28.0824 26.8279 27.7488 27.1599 27.3412 27.1599Z" fill="#4C5B60"/>
<mask id="mask0_43_1084" style="mask-type:alpha" maskUnits="userSpaceOnUse" x="15" y="11" width="14" height="17">
<path d="M27.3412 27.24H15.9765V11.4H27.3412C27.7488 11.4 28.0824 11.712 28.0824 12.108V26.508C28.0824 26.908 27.7488 27.24 27.3412 27.24Z" fill="white"/>
</mask>
<g mask="url(#mask0_43_1084)">
<path opacity="0.11" d="M14.9223 39.3441C14.9059 39.3441 14.8894 39.3401 14.877 39.3281C14.8523 39.3041 14.8523 39.2681 14.877 39.2441L29.0582 25.4721C29.0829 25.4481 29.12 25.4481 29.1447 25.4721C29.1694 25.4961 29.1694 25.5321 29.1447 25.5561L14.9676 39.3281C14.9553 39.3401 14.9388 39.3441 14.9223 39.3441Z" fill="#102D3B"/>
<path opacity="0.11" d="M14.9223 38.7842C14.9059 38.7842 14.8894 38.7802 14.877 38.7682C14.8523 38.7442 14.8523 38.7082 14.877 38.6842L29.0582 24.9122C29.0829 24.8882 29.12 24.8882 29.1447 24.9122C29.1694 24.9362 29.1694 24.9722 29.1447 24.9962L14.9676 38.7682C14.9553 38.7802 14.9388 38.7842 14.9223 38.7842Z" fill="#102D3B"/>
<path opacity="0.11" d="M14.9223 38.2241C14.9059 38.2241 14.8894 38.2201 14.877 38.2081C14.8523 38.1841 14.8523 38.1481 14.877 38.1241L29.0582 24.3521C29.0829 24.3281 29.12 24.3281 29.1447 24.3521C29.1694 24.3761 29.1694 24.4121 29.1447 24.4361L14.9676 38.2081C14.9553 38.2201 14.9388 38.2241 14.9223 38.2241Z" fill="#102D3B"/>
<path opacity="0.11" d="M14.9223 37.6642C14.9059 37.6642 14.8894 37.6602 14.877 37.6482C14.8523 37.6242 14.8523 37.5882 14.877 37.5642L29.0582 23.7922C29.0829 23.7682 29.12 23.7682 29.1447 23.7922C29.1694 23.8162 29.1694 23.8522 29.1447 23.8762L14.9676 37.6482C14.9553 37.6602 14.9388 37.6642 14.9223 37.6642Z" fill="#102D3B"/>
<path opacity="0.11" d="M14.9223 37.1041C14.9059 37.1041 14.8894 37.1001 14.877 37.0881C14.8523 37.0641 14.8523 37.0281 14.877 37.0041L29.0582 23.2321C29.0829 23.2081 29.12 23.2081 29.1447 23.2321C29.1694 23.2561 29.1694 23.2921 29.1447 23.3161L14.9676 37.0881C14.9553 37.1001 14.9388 37.1041 14.9223 37.1041Z" fill="#102D3B"/>
<path opacity="0.11" d="M14.9223 36.5442C14.9059 36.5442 14.8894 36.5402 14.877 36.5282C14.8523 36.5042 14.8523 36.4682 14.877 36.4442L29.0582 22.6722C29.0829 22.6482 29.12 22.6482 29.1447 22.6722C29.1694 22.6962 29.1694 22.7322 29.1447 22.7562L14.9676 36.5282C14.9553 36.5402 14.9388 36.5442 14.9223 36.5442Z" fill="#102D3B"/>
<path opacity="0.11" d="M14.9223 35.9841C14.9059 35.9841 14.8894 35.9801 14.877 35.9681C14.8523 35.9441 14.8523 35.9081 14.877 35.8841L29.0582 22.1121C29.0829 22.0881 29.12 22.0881 29.1447 22.1121C29.1694 22.1361 29.1694 22.1721 29.1447 22.1961L14.9676 35.9681C14.9553 35.9801 14.9388 35.9841 14.9223 35.9841Z" fill="#102D3B"/>
<path opacity="0.11" d="M14.9223 35.4242C14.9059 35.4242 14.8894 35.4202 14.877 35.4082C14.8523 35.3842 14.8523 35.3482 14.877 35.3242L29.0582 21.5522C29.0829 21.5282 29.12 21.5282 29.1447 21.5522C29.1694 21.5762 29.1694 21.6122 29.1447 21.6362L14.9676 35.4082C14.9553 35.4202 14.9388 35.4242 14.9223 35.4242Z" fill="#102D3B"/>
<path opacity="0.11" d="M14.9223 34.8641C14.9059 34.8641 14.8894 34.8601 14.877 34.8481C14.8523 34.8241 14.8523 34.7881 14.877 34.7641L29.0582 20.9921C29.0829 20.9681 29.12 20.9681 29.1447 20.9921C29.1694 21.0161 29.1694 21.0521 29.1447 21.0761L14.9676 34.8481C14.9553 34.8601 14.9388 34.8641 14.9223 34.8641Z" fill="#102D3B"/>
<path opacity="0.11" d="M14.9223 34.3041C14.9059 34.3041 14.8894 34.3001 14.877 34.2881C14.8523 34.2641 14.8523 34.2281 14.877 34.2041L29.0582 20.4321C29.0829 20.4081 29.12 20.4081 29.1447 20.4321C29.1694 20.4561 29.1694 20.4921 29.1447 20.5161L14.9676 34.2881C14.9553 34.3001 14.9388 34.3041 14.9223 34.3041Z" fill="#102D3B"/>
<path opacity="0.11" d="M14.9223 33.7441C14.9059 33.7441 14.8894 33.7401 14.877 33.7281C14.8523 33.7041 14.8523 33.6681 14.877 33.6441L29.0582 19.8721C29.0829 19.8481 29.12 19.8481 29.1447 19.8721C29.1694 19.8961 29.1694 19.9321 29.1447 19.9561L14.9676 33.7281C14.9553 33.7401 14.9388 33.7441 14.9223 33.7441Z" fill="#102D3B"/>
<path opacity="0.11" d="M14.9223 33.1841C14.9059 33.1841 14.8894 33.1801 14.877 33.1681C14.8523 33.1441 14.8523 33.1081 14.877 33.0841L29.0582 19.3121C29.0829 19.2881 29.12 19.2881 29.1447 19.3121C29.1694 19.3361 29.1694 19.3721 29.1447 19.3961L14.9676 33.1681C14.9553 33.1801 14.9388 33.1841 14.9223 33.1841Z" fill="#102D3B"/>
<path opacity="0.11" d="M14.9223 32.6241C14.9059 32.6241 14.8894 32.6201 14.877 32.6081C14.8523 32.5841 14.8523 32.5481 14.877 32.5241L29.0582 18.7521C29.0829 18.7281 29.12 18.7281 29.1447 18.7521C29.1694 18.7761 29.1694 18.8121 29.1447 18.8361L14.9676 32.6081C14.9553 32.6201 14.9388 32.6241 14.9223 32.6241Z" fill="#102D3B"/>
<path opacity="0.11" d="M14.9223 32.0641C14.9059 32.0641 14.8894 32.0601 14.877 32.0481C14.8523 32.0241 14.8523 31.9881 14.877 31.9641L29.0582 18.1921C29.0829 18.1681 29.12 18.1681 29.1447 18.1921C29.1694 18.2161 29.1694 18.2521 29.1447 18.2761L14.9676 32.0481C14.9553 32.0601 14.9388 32.0641 14.9223 32.0641Z" fill="#102D3B"/>
<path opacity="0.11" d="M14.9223 31.5041C14.9059 31.5041 14.8894 31.5001 14.877 31.4881C14.8523 31.4641 14.8523 31.4281 14.877 31.4041L29.0582 17.6321C29.0829 17.6081 29.12 17.6081 29.1447 17.6321C29.1694 17.6561 29.1694 17.6921 29.1447 17.7161L14.9676 31.4881C14.9553 31.5001 14.9388 31.5041 14.9223 31.5041Z" fill="#102D3B"/>
<path opacity="0.11" d="M14.9223 30.9441C14.9059 30.9441 14.8894 30.9401 14.877 30.9281C14.8523 30.9041 14.8523 30.8681 14.877 30.8441L29.0582 17.0721C29.0829 17.0481 29.12 17.0481 29.1447 17.0721C29.1694 17.0961 29.1694 17.1321 29.1447 17.1561L14.9676 30.9281C14.9553 30.9401 14.9388 30.9441 14.9223 30.9441Z" fill="#102D3B"/>
<path opacity="0.11" d="M14.9223 30.3841C14.9059 30.3841 14.8894 30.3801 14.877 30.3681C14.8523 30.3441 14.8523 30.3081 14.877 30.2841L29.0582 16.5121C29.0829 16.4881 29.12 16.4881 29.1447 16.5121C29.1694 16.5361 29.1694 16.5721 29.1447 16.5961L14.9676 30.3681C14.9553 30.3801 14.9388 30.3841 14.9223 30.3841Z" fill="#102D3B"/>
<path opacity="0.11" d="M14.9223 29.8241C14.9059 29.8241 14.8894 29.8201 14.877 29.8081C14.8523 29.7841 14.8523 29.7481 14.877 29.7241L29.0582 15.9521C29.0829 15.9281 29.12 15.9281 29.1447 15.9521C29.1694 15.9761 29.1694 16.0121 29.1447 16.0361L14.9676 29.8081C14.9553 29.8201 14.9388 29.8241 14.9223 29.8241Z" fill="#102D3B"/>
<path opacity="0.11" d="M14.9223 29.2641C14.9059 29.2641 14.8894 29.2601 14.877 29.2481C14.8523 29.2241 14.8523 29.1881 14.877 29.1641L29.0582 15.3921C29.0829 15.3681 29.12 15.3681 29.1447 15.3921C29.1694 15.4161 29.1694 15.4521 29.1447 15.4761L14.9676 29.2481C14.9553 29.2601 14.9388 29.2641 14.9223 29.2641Z" fill="#102D3B"/>
<path opacity="0.11" d="M14.9223 28.7041C14.9059 28.7041 14.8894 28.7001 14.877 28.6881C14.8523 28.6641 14.8523 28.6281 14.877 28.6041L29.0582 14.8321C29.0829 14.8081 29.12 14.8081 29.1447 14.8321C29.1694 14.8561 29.1694 14.8921 29.1447 14.9161L14.9676 28.6881C14.9553 28.7001 14.9388 28.7041 14.9223 28.7041Z" fill="#102D3B"/>
<path opacity="0.11" d="M14.9223 28.1442C14.9059 28.1442 14.8894 28.1402 14.877 28.1282C14.8523 28.1042 14.8523 28.0682 14.877 28.0442L29.0582 14.2722C29.0829 14.2482 29.12 14.2482 29.1447 14.2722C29.1694 14.2962 29.1694 14.3322 29.1447 14.3562L14.9676 28.1282C14.9553 28.1402 14.9388 28.1442 14.9223 28.1442Z" fill="#102D3B"/>
<path opacity="0.11" d="M14.9223 27.5841C14.9059 27.5841 14.8894 27.5801 14.877 27.5681C14.8523 27.5441 14.8523 27.5081 14.877 27.4841L29.0582 13.7121C29.0829 13.6881 29.12 13.6881 29.1447 13.7121C29.1694 13.7361 29.1694 13.7721 29.1447 13.7961L14.9676 27.5681C14.9553 27.5801 14.9388 27.5841 14.9223 27.5841Z" fill="#102D3B"/>
<path opacity="0.11" d="M14.9223 27.0242C14.9059 27.0242 14.8894 27.0202 14.877 27.0082C14.8523 26.9842 14.8523 26.9482 14.877 26.9242L29.0582 13.1522C29.0829 13.1282 29.12 13.1282 29.1447 13.1522C29.1694 13.1762 29.1694 13.2122 29.1447 13.2362L14.9676 27.0082C14.9553 27.0202 14.9388 27.0242 14.9223 27.0242Z" fill="#102D3B"/>
<path opacity="0.11" d="M14.9223 26.4641C14.9059 26.4641 14.8894 26.4601 14.877 26.4481C14.8523 26.4241 14.8523 26.3881 14.877 26.3641L29.0582 12.5921C29.0829 12.5681 29.12 12.5681 29.1447 12.5921C29.1694 12.6161 29.1694 12.6521 29.1447 12.6761L14.9676 26.4481C14.9553 26.4601 14.9388 26.4641 14.9223 26.4641Z" fill="#102D3B"/>
<path opacity="0.11" d="M14.9223 25.9042C14.9059 25.9042 14.8894 25.9002 14.877 25.8882C14.8523 25.8642 14.8523 25.8282 14.877 25.8042L29.0582 12.0322C29.0829 12.0082 29.12 12.0082 29.1447 12.0322C29.1694 12.0562 29.1694 12.0922 29.1447 12.1162L14.9676 25.8882C14.9553 25.9002 14.9388 25.9042 14.9223 25.9042Z" fill="#102D3B"/>
<path opacity="0.11" d="M14.9223 25.3441C14.9059 25.3441 14.8894 25.3401 14.877 25.3281C14.8523 25.3041 14.8523 25.2681 14.877 25.2441L29.0582 11.4721C29.0829 11.4481 29.12 11.4481 29.1447 11.4721C29.1694 11.4961 29.1694 11.5321 29.1447 11.5561L14.9676 25.3281C14.9553 25.3401 14.9388 25.3441 14.9223 25.3441Z" fill="#102D3B"/>
<path opacity="0.11" d="M14.9223 24.7842C14.9059 24.7842 14.8894 24.7802 14.877 24.7682C14.8523 24.7442 14.8523 24.7082 14.877 24.6842L29.0582 10.9122C29.0829 10.8882 29.12 10.8882 29.1447 10.9122C29.1694 10.9362 29.1694 10.9722 29.1447 10.9962L14.9676 24.7682C14.9553 24.7802 14.9388 24.7842 14.9223 24.7842Z" fill="#102D3B"/>
<path opacity="0.11" d="M14.9223 24.2241C14.9059 24.2241 14.8894 24.2201 14.877 24.2081C14.8523 24.1841 14.8523 24.1481 14.877 24.1241L29.0582 10.3521C29.0829 10.3281 29.12 10.3281 29.1447 10.3521C29.1694 10.3761 29.1694 10.4121 29.1447 10.4361L14.9676 24.2081C14.9553 24.2201 14.9388 24.2241 14.9223 24.2241Z" fill="#102D3B"/>
<path opacity="0.11" d="M14.9223 23.6642C14.9059 23.6642 14.8894 23.6602 14.877 23.6482C14.8523 23.6242 14.8523 23.5882 14.877 23.5642L29.0582 9.79217C29.0829 9.76817 29.12 9.76817 29.1447 9.79217C29.1694 9.81617 29.1694 9.85217 29.1447 9.87617L14.9676 23.6482C14.9553 23.6602 14.9388 23.6642 14.9223 23.6642Z" fill="#102D3B"/>
<path opacity="0.11" d="M14.9223 23.1041C14.9059 23.1041 14.8894 23.1001 14.877 23.0881C14.8523 23.0641 14.8523 23.0281 14.877 23.0041L29.0582 9.23211C29.0829 9.20811 29.12 9.20811 29.1447 9.23211C29.1694 9.25611 29.1694 9.29211 29.1447 9.31611L14.9676 23.0881C14.9553 23.1001 14.9388 23.1041 14.9223 23.1041Z" fill="#102D3B"/>
<path opacity="0.11" d="M14.9223 22.5442C14.9059 22.5442 14.8894 22.5402 14.877 22.5282C14.8523 22.5042 14.8523 22.4682 14.877 22.4442L29.0582 8.67217C29.0829 8.64817 29.12 8.64817 29.1447 8.67217C29.1694 8.69617 29.1694 8.73218 29.1447 8.75618L14.9676 22.5282C14.9553 22.5402 14.9388 22.5442 14.9223 22.5442Z" fill="#102D3B"/>
<path opacity="0.11" d="M14.9223 21.9841C14.9059 21.9841 14.8894 21.9801 14.877 21.9681C14.8523 21.9441 14.8523 21.9081 14.877 21.8841L29.0582 8.11212C29.0829 8.08812 29.12 8.08812 29.1447 8.11212C29.1694 8.13612 29.1694 8.17212 29.1447 8.19612L14.9676 21.9681C14.9553 21.9801 14.9388 21.9841 14.9223 21.9841Z" fill="#102D3B"/>
<path opacity="0.11" d="M14.9223 21.4241C14.9059 21.4241 14.8894 21.4201 14.877 21.4081C14.8523 21.3841 14.8523 21.3481 14.877 21.3241L29.0582 7.55206C29.0829 7.52806 29.12 7.52806 29.1447 7.55206C29.1694 7.57606 29.1694 7.61206 29.1447 7.63606L14.9676 21.4081C14.9553 21.4201 14.9388 21.4241 14.9223 21.4241Z" fill="#102D3B"/>
<path opacity="0.11" d="M14.9223 20.8641C14.9059 20.8641 14.8894 20.8601 14.877 20.8481C14.8523 20.8241 14.8523 20.7881 14.877 20.7641L29.0582 6.99212C29.0829 6.96812 29.12 6.96812 29.1447 6.99212C29.1694 7.01612 29.1694 7.05212 29.1447 7.07612L14.9676 20.8481C14.9553 20.8601 14.9388 20.8641 14.9223 20.8641Z" fill="#102D3B"/>
<path opacity="0.11" d="M14.9223 20.3041C14.9059 20.3041 14.8894 20.3001 14.877 20.2881C14.8523 20.2641 14.8523 20.2281 14.877 20.2041L29.0582 6.43206C29.0829 6.40806 29.12 6.40806 29.1447 6.43206C29.1694 6.45606 29.1694 6.49206 29.1447 6.51606L14.9676 20.2881C14.9553 20.3001 14.9388 20.3041 14.9223 20.3041Z" fill="#102D3B"/>
<path opacity="0.11" d="M14.9223 19.7441C14.9059 19.7441 14.8894 19.7401 14.877 19.7281C14.8523 19.7041 14.8523 19.6681 14.877 19.6441L29.0582 5.87213C29.0829 5.84813 29.12 5.84813 29.1447 5.87213C29.1694 5.89613 29.1694 5.93213 29.1447 5.95613L14.9676 19.7281C14.9553 19.7401 14.9388 19.7441 14.9223 19.7441Z" fill="#102D3B"/>
<path opacity="0.11" d="M14.9223 19.1841C14.9059 19.1841 14.8894 19.1801 14.877 19.1681C14.8523 19.1441 14.8523 19.1081 14.877 19.0841L29.0582 5.31207C29.0829 5.28807 29.12 5.28807 29.1447 5.31207C29.1694 5.33607 29.1694 5.37207 29.1447 5.39607L14.9676 19.1681C14.9553 19.1801 14.9388 19.1841 14.9223 19.1841Z" fill="#102D3B"/>
<path opacity="0.11" d="M14.9223 18.6241C14.9059 18.6241 14.8894 18.6201 14.877 18.6081C14.8523 18.5841 14.8523 18.5481 14.877 18.5241L29.0582 4.7481C29.0829 4.7241 29.12 4.7241 29.1447 4.7481C29.1694 4.7721 29.1694 4.8081 29.1447 4.8321L14.9676 18.6081C14.9553 18.6201 14.9388 18.6241 14.9223 18.6241Z" fill="#102D3B"/>
<path opacity="0.11" d="M14.9223 18.064C14.9059 18.064 14.8894 18.06 14.877 18.048C14.8523 18.024 14.8523 17.988 14.877 17.964L29.0582 4.18804C29.0829 4.16404 29.12 4.16404 29.1447 4.18804C29.1694 4.21204 29.1694 4.24804 29.1447 4.27204L14.9676 18.048C14.9553 18.06 14.9388 18.064 14.9223 18.064Z" fill="#102D3B"/>
<path opacity="0.11" d="M14.9223 17.5041C14.9059 17.5041 14.8894 17.5001 14.877 17.4881C14.8523 17.4641 14.8523 17.4281 14.877 17.4041L29.0582 3.62408C29.0829 3.60008 29.12 3.60008 29.1447 3.62408C29.1694 3.64808 29.1694 3.68408 29.1447 3.70808L14.9676 17.4881C14.9553 17.5001 14.9388 17.5041 14.9223 17.5041Z" fill="#102D3B"/>
<path opacity="0.11" d="M14.9223 16.9441C14.9059 16.9441 14.8894 16.9401 14.877 16.9281C14.8523 16.9041 14.8523 16.8681 14.877 16.8441L29.0582 3.06414C29.0829 3.04014 29.12 3.04014 29.1447 3.06414C29.1694 3.08814 29.1694 3.12414 29.1447 3.14814L14.9676 16.9281C14.9553 16.9401 14.9388 16.9441 14.9223 16.9441Z" fill="#102D3B"/>
<path opacity="0.11" d="M14.9223 16.3841C14.9059 16.3841 14.8894 16.3801 14.877 16.3681C14.8523 16.3441 14.8523 16.3081 14.877 16.2841L29.0582 2.50408C29.0829 2.48008 29.12 2.48008 29.1447 2.50408C29.1694 2.52808 29.1694 2.56408 29.1447 2.58808L14.9676 16.3681C14.9553 16.3801 14.9388 16.3841 14.9223 16.3841Z" fill="#102D3B"/>
<path opacity="0.11" d="M14.9223 15.8241C14.9059 15.8241 14.8894 15.8201 14.877 15.8081C14.8523 15.7841 14.8523 15.7481 14.877 15.7241L29.0582 1.94415C29.0829 1.92015 29.12 1.92015 29.1447 1.94415C29.1694 1.96815 29.1694 2.00415 29.1447 2.02815L14.9676 15.8081C14.9553 15.8201 14.9388 15.8241 14.9223 15.8241Z" fill="#102D3B"/>
<path opacity="0.11" d="M14.9223 15.2641C14.9059 15.2641 14.8894 15.2601 14.877 15.2481C14.8523 15.2241 14.8523 15.1881 14.877 15.1641L29.0582 1.38409C29.0829 1.36009 29.12 1.36009 29.1447 1.38409C29.1694 1.40809 29.1694 1.44409 29.1447 1.46809L14.9676 15.2481C14.9553 15.2601 14.9388 15.2641 14.9223 15.2641Z" fill="#102D3B"/>
<path opacity="0.11" d="M14.9223 14.7041C14.9059 14.7041 14.8894 14.7001 14.877 14.6881C14.8523 14.6641 14.8523 14.6281 14.877 14.6041L29.0582 0.824152C29.0829 0.800152 29.12 0.800152 29.1447 0.824152C29.1694 0.848152 29.1694 0.884152 29.1447 0.908152L14.9676 14.6881C14.9553 14.7001 14.9388 14.7041 14.9223 14.7041Z" fill="#102D3B"/>
<path opacity="0.11" d="M14.9223 14.1441C14.9059 14.1441 14.8894 14.1401 14.877 14.1281C14.8523 14.1041 14.8523 14.0681 14.877 14.0441L29.0582 0.264094C29.0829 0.240094 29.12 0.240094 29.1447 0.264094C29.1694 0.288094 29.1694 0.324094 29.1447 0.348094L14.9676 14.1281C14.9553 14.1401 14.9388 14.1441 14.9223 14.1441Z" fill="#102D3B"/>
<path opacity="0.11" d="M14.9223 13.584C14.9059 13.584 14.8894 13.58 14.877 13.568C14.8523 13.544 14.8523 13.508 14.877 13.484L27.7571 0.964045C27.7818 0.940045 27.8188 0.940045 27.8435 0.964045C27.8682 0.988045 27.8682 1.02404 27.8435 1.04804L14.9676 13.568C14.9553 13.58 14.9388 13.584 14.9223 13.584Z" fill="#102D3B"/>
<path opacity="0.11" d="M14.9223 13.0241C14.9059 13.0241 14.8894 13.0201 14.877 13.0081C14.8523 12.9841 14.8523 12.9481 14.877 12.9241L26.9582 1.18414C26.9829 1.16014 27.02 1.16014 27.0447 1.18414C27.0694 1.20814 27.0694 1.24414 27.0447 1.26814L14.9676 13.0081C14.9553 13.0201 14.9388 13.0241 14.9223 13.0241Z" fill="#102D3B"/>
</g>
<path d="M26.3941 11.3199H25.4059V27.1599H26.3941V11.3199Z" fill="#3E4B4F"/>
<path opacity="0.3" d="M16.6765 11.3199H15.9765V27.1599H16.6765V11.3199Z" fill="#CCDDE5"/>
<path d="M28.0824 15.88H15.9765V20.36H28.0824V15.88Z" fill="#FF9852"/>
<path d="M21.3788 17.256C21.3788 17.34 21.3624 17.408 21.3294 17.46C21.2965 17.512 21.2594 17.552 21.2182 17.584C21.1565 17.632 21.0741 17.652 20.9629 17.652H20.5059V16.828H20.86C20.9135 16.828 20.9588 16.832 20.9959 16.836C21.0329 16.84 21.0659 16.848 21.0988 16.86C21.1318 16.872 21.1565 16.88 21.1771 16.892C21.1977 16.904 21.2182 16.916 21.2347 16.932C21.2635 16.956 21.2882 16.984 21.3088 17.012C21.3294 17.04 21.35 17.08 21.3624 17.12C21.3747 17.164 21.3788 17.208 21.3788 17.256ZM21.1194 17.248C21.1194 17.18 21.1071 17.128 21.0782 17.092C21.0535 17.056 21.0206 17.028 20.9835 17.016C20.9465 17.004 20.9094 16.996 20.8724 16.996H20.7653V17.484H20.8724C20.9382 17.484 20.9959 17.468 21.0453 17.436C21.0947 17.404 21.1194 17.344 21.1194 17.248Z" fill="#D85639"/>
<path d="M22.4453 17.24C22.4453 17.316 22.4288 17.388 22.3918 17.452C22.3547 17.516 22.3012 17.568 22.2271 17.604C22.153 17.64 22.0665 17.66 21.9635 17.66C21.8606 17.66 21.77 17.64 21.6959 17.6C21.6218 17.56 21.5683 17.508 21.5353 17.444C21.4983 17.38 21.4818 17.312 21.4818 17.236C21.4818 17.16 21.4983 17.092 21.5353 17.028C21.5724 16.964 21.6259 16.912 21.6959 16.872C21.77 16.832 21.8565 16.812 21.9635 16.812C22.0418 16.812 22.1118 16.824 22.1735 16.844C22.2353 16.864 22.2847 16.896 22.3259 16.936C22.3671 16.976 22.3959 17.02 22.4165 17.072C22.4371 17.124 22.4453 17.184 22.4453 17.24ZM22.1859 17.24C22.1859 17.208 22.1818 17.18 22.1735 17.156C22.1653 17.132 22.1488 17.108 22.1324 17.088C22.1118 17.068 22.0912 17.056 22.0624 17.044C22.0335 17.032 22.0047 17.028 21.9677 17.028C21.8977 17.028 21.8441 17.048 21.8071 17.088C21.77 17.128 21.7494 17.176 21.7494 17.24C21.7494 17.304 21.77 17.352 21.8071 17.392C21.8483 17.432 21.9018 17.452 21.9677 17.452C22.013 17.452 22.0541 17.444 22.0871 17.424C22.12 17.404 22.1447 17.38 22.1612 17.348C22.1735 17.32 22.1859 17.284 22.1859 17.24Z" fill="#D85639"/>
<path d="M23.3429 17.032H23.0341V17.656H22.7788V17.032H22.47V16.832H23.3471L23.3429 17.032Z" fill="#D85639"/>
<path d="M21.3088 18.576C21.2924 18.584 21.2759 18.588 21.2635 18.592C21.2512 18.596 21.2388 18.6 21.2265 18.604C21.2141 18.608 21.1977 18.612 21.173 18.616C21.1359 18.624 21.0947 18.632 21.0577 18.636C21.0206 18.64 20.9794 18.644 20.9341 18.644C20.8477 18.644 20.7694 18.628 20.6953 18.6C20.6212 18.568 20.5635 18.524 20.5182 18.46C20.4729 18.396 20.4524 18.316 20.4524 18.224C20.4524 18.164 20.4647 18.104 20.4853 18.048C20.5059 17.992 20.5429 17.944 20.5882 17.908C20.6253 17.88 20.6665 17.856 20.7035 17.84C20.7447 17.824 20.7818 17.816 20.8188 17.808C20.8559 17.804 20.8971 17.8 20.9424 17.8C21.0165 17.8 21.0782 17.804 21.1277 17.816C21.1771 17.828 21.2306 17.84 21.2882 17.86V18.056C21.2512 18.036 21.21 18.016 21.1647 18C21.1235 17.984 21.07 17.98 21.0041 17.98C20.93 17.98 20.8724 17.992 20.8271 18.02C20.7818 18.048 20.753 18.08 20.7365 18.116C20.72 18.152 20.7118 18.192 20.7118 18.224C20.7118 18.264 20.72 18.304 20.7406 18.34C20.7612 18.376 20.79 18.404 20.8312 18.424C20.8724 18.444 20.9218 18.456 20.9753 18.456C21.0082 18.456 21.0412 18.452 21.0782 18.444V18.348H20.963V18.184H21.3006V18.576H21.3088Z" fill="#D85639"/>
<path d="M22.33 18.636H22.0541L21.9882 18.488C21.9635 18.436 21.9429 18.396 21.9224 18.372C21.9018 18.348 21.8853 18.332 21.8647 18.324C21.8441 18.316 21.8235 18.312 21.7947 18.312H21.7659V18.632H21.5106V17.808H21.9471C22.0171 17.808 22.0747 17.82 22.12 17.848C22.1653 17.876 22.1982 17.908 22.2188 17.948C22.2394 17.988 22.2476 18.024 22.2476 18.06C22.2476 18.1 22.2394 18.136 22.2229 18.164C22.2065 18.192 22.19 18.212 22.1694 18.228C22.1529 18.24 22.1324 18.252 22.1076 18.264C22.1365 18.28 22.1571 18.296 22.1735 18.32C22.19 18.344 22.2147 18.384 22.2476 18.448L22.33 18.636ZM21.9841 18.072C21.9841 18.032 21.9718 18.008 21.9471 17.992C21.9224 17.976 21.8812 17.968 21.8235 17.968H21.77V18.168H21.8235C21.8853 18.168 21.9306 18.16 21.9512 18.148C21.9718 18.136 21.9841 18.108 21.9841 18.072Z" fill="#D85639"/>
<path d="M22.6933 18.636H22.4453V17.812H22.6933V18.636Z" fill="#D85639"/>
<path d="M23.7876 18.236C23.7876 18.32 23.7712 18.388 23.7382 18.44C23.7053 18.492 23.6682 18.532 23.6271 18.564C23.5653 18.612 23.4829 18.632 23.3718 18.632H22.9147V17.808H23.2688C23.3223 17.808 23.3676 17.812 23.4047 17.816C23.4418 17.82 23.4747 17.828 23.5076 17.84C23.5406 17.852 23.5653 17.86 23.5859 17.872C23.6065 17.884 23.6271 17.896 23.6435 17.912C23.6724 17.936 23.6971 17.964 23.7176 17.992C23.7382 18.02 23.7588 18.06 23.7712 18.1C23.7794 18.144 23.7876 18.188 23.7876 18.236ZM23.5282 18.228C23.5282 18.16 23.5159 18.108 23.4871 18.072C23.4624 18.036 23.4294 18.008 23.3923 17.996C23.3553 17.984 23.3182 17.976 23.2812 17.976H23.1741V18.464H23.2812C23.3471 18.464 23.4047 18.448 23.4541 18.416C23.5035 18.384 23.5282 18.324 23.5282 18.228Z" fill="#D85639"/>
<path d="M21.2842 19.38C21.2842 19.452 21.2595 19.508 21.2101 19.548C21.1607 19.592 21.0907 19.612 21.0001 19.612H20.5101V18.788H20.9177C20.9712 18.788 21.0165 18.792 21.0577 18.804C21.0989 18.812 21.1277 18.828 21.1524 18.844C21.1771 18.86 21.1936 18.88 21.206 18.904C21.2183 18.928 21.2224 18.952 21.2224 18.98C21.2224 19.012 21.2183 19.036 21.206 19.064C21.1936 19.092 21.1771 19.112 21.1607 19.128C21.1442 19.144 21.1236 19.156 21.1071 19.164C21.1648 19.188 21.2101 19.216 21.2389 19.248C21.2677 19.28 21.2842 19.328 21.2842 19.38ZM20.9836 19.028C20.9836 18.988 20.9712 18.964 20.9424 18.948C20.9136 18.932 20.8724 18.928 20.8148 18.928H20.7612V19.124H20.8148C20.8724 19.124 20.9136 19.116 20.9424 19.104C20.9712 19.096 20.9836 19.068 20.9836 19.028ZM21.0248 19.372C21.0248 19.3 20.9712 19.268 20.8683 19.268H20.7654V19.48H20.8683C20.9754 19.476 21.0248 19.44 21.0248 19.372Z" fill="#D85639"/>
<path d="M22.3547 19.204C22.3547 19.28 22.3382 19.352 22.3012 19.416C22.2641 19.48 22.2106 19.532 22.1365 19.568C22.0623 19.604 21.9759 19.624 21.8729 19.624C21.77 19.624 21.6794 19.604 21.6053 19.564C21.5312 19.524 21.4776 19.472 21.4447 19.408C21.4076 19.344 21.3912 19.276 21.3912 19.2C21.3912 19.124 21.4076 19.056 21.4447 18.992C21.4818 18.928 21.5353 18.876 21.6053 18.836C21.6794 18.796 21.7659 18.776 21.8729 18.776C21.9512 18.776 22.0212 18.788 22.0829 18.808C22.1447 18.828 22.1941 18.86 22.2353 18.9C22.2765 18.94 22.3053 18.984 22.3259 19.036C22.3465 19.088 22.3547 19.144 22.3547 19.204ZM22.0912 19.204C22.0912 19.172 22.0871 19.144 22.0788 19.12C22.0706 19.096 22.0541 19.072 22.0376 19.052C22.0171 19.032 21.9965 19.02 21.9676 19.008C21.9388 18.996 21.91 18.992 21.8729 18.992C21.8029 18.992 21.7494 19.012 21.7124 19.052C21.6753 19.092 21.6547 19.14 21.6547 19.204C21.6547 19.268 21.6753 19.316 21.7124 19.356C21.7535 19.396 21.8071 19.416 21.8729 19.416C21.9182 19.416 21.9594 19.408 21.9923 19.388C22.0253 19.368 22.05 19.344 22.0665 19.312C22.0829 19.28 22.0912 19.244 22.0912 19.204Z" fill="#D85639"/>
<path d="M23.4171 19.204C23.4171 19.28 23.4006 19.352 23.3636 19.416C23.3265 19.48 23.273 19.532 23.1988 19.568C23.1247 19.604 23.0383 19.624 22.9353 19.624C22.8324 19.624 22.7418 19.604 22.6677 19.564C22.5936 19.524 22.54 19.472 22.5071 19.408C22.47 19.344 22.4536 19.276 22.4536 19.2C22.4536 19.124 22.47 19.056 22.5071 18.992C22.5441 18.928 22.5977 18.876 22.6677 18.836C22.7418 18.796 22.8283 18.776 22.9353 18.776C23.0136 18.776 23.0836 18.788 23.1453 18.808C23.2071 18.828 23.2565 18.86 23.2977 18.9C23.3388 18.94 23.3677 18.984 23.3883 19.036C23.4088 19.088 23.4171 19.144 23.4171 19.204ZM23.1577 19.204C23.1577 19.172 23.1536 19.144 23.1453 19.12C23.1371 19.096 23.1206 19.072 23.1041 19.052C23.0836 19.032 23.063 19.02 23.0341 19.008C23.0053 18.996 22.9765 18.992 22.9394 18.992C22.8694 18.992 22.8159 19.012 22.7788 19.052C22.7418 19.092 22.7212 19.14 22.7212 19.204C22.7212 19.268 22.7418 19.316 22.7788 19.356C22.82 19.396 22.8736 19.416 22.9394 19.416C22.9847 19.416 23.0259 19.408 23.0588 19.388C23.0918 19.368 23.1165 19.344 23.133 19.312C23.1494 19.28 23.1577 19.244 23.1577 19.204Z" fill="#D85639"/>
<path d="M24.4671 19.616H24.1541L23.8288 19.232V19.616H23.5735V18.792H23.8288V19.16L24.1377 18.792H24.4135L24.0965 19.176L24.4671 19.616Z" fill="#D85639"/>
<path d="M16.6765 15.88H15.9765V20.36H16.6765V15.88Z" fill="#FDBA5D"/>
<path opacity="0.61" d="M26.3941 15.88H25.6941V20.36H26.3941V15.88Z" fill="#D85639"/>
<path d="M25.7024 27.48H25.1959C25.0641 27.48 24.9571 27.376 24.9571 27.248V11.232C24.9571 11.104 25.0641 11 25.1959 11H25.7024C25.8341 11 25.9412 11.104 25.9412 11.232V27.244C25.9412 27.376 25.8341 27.48 25.7024 27.48Z" fill="#B7C8CE"/>
<path d="M18.4883 28.988L17.253 28.32V27.16H18.4883V28.988Z" fill="#EA3939"/>
<path opacity="0.62" d="M18.4883 27.16H17.253V27.612H18.4883V27.16Z" fill="#EA3939"/>
<path d="M13.5471 14.6801H12.2294V20.7201H13.5471V14.6801Z" fill="#0A7362"/>
<path d="M13.5635 24.8C13.1188 24.8 12.67 24.8 12.2253 24.8C12.1388 23.92 12.1388 23 12.2253 22.08C12.67 22.08 13.1188 22.08 13.5635 22.08C13.65 23 13.65 23.92 13.5635 24.8Z" fill="#0A7362"/>
<path d="M13.5635 22.08C13.1188 22.08 12.67 22.08 12.2253 22.08C12.5012 21.68 12.5012 21.16 12.2253 20.72C12.67 20.72 13.1188 20.72 13.5635 20.72C13.2877 21.16 13.2877 21.68 13.5635 22.08Z" fill="#0A7362"/>
<path d="M13.0653 26.68C13.2877 26.04 13.5553 25.44 13.5635 24.8H12.2253C12.2335 25.44 12.5012 26.04 12.7235 26.68H13.0653Z" fill="#0A7362"/>
<path d="M13.053 26.6801H12.7235V26.9201H13.053V26.6801Z" fill="#0A7362"/>
<path d="M13.3823 13.8H12.3941V14.68H13.3823V13.8Z" fill="#0A7362"/>
<path d="M13.2588 13.8H12.5176V12.772C12.5176 12.632 12.6494 12.52 12.7935 12.52H12.9994C13.1435 12.52 13.2588 12.632 13.2588 12.772V13.8Z" fill="#0A7362"/>
<path d="M14 15.24H12.7235V15.96H14V15.24Z" fill="#0A7362"/>
<path d="M14 18.412L13.5471 17.832V15.96H14V18.412Z" fill="#0A7362"/>
<path d="M13.2753 21.88C12.8306 21.88 12.3818 21.88 11.9371 21.88C12.213 21.48 12.213 20.96 11.9371 20.52C12.3818 20.52 12.8306 20.52 13.2753 20.52C12.9994 20.96 12.9994 21.48 13.2753 21.88Z" fill="#102D3B"/>
<path d="M13.2588 14.48H11.9412V20.52H13.2588V14.48Z" fill="#526066"/>
<path d="M13.2588 14.48H11.9412V20.52H13.2588V14.48Z" fill="#526066"/>
<path opacity="0.64" d="M12.353 14.48H11.9412V20.52H12.353V14.48Z" fill="#526066"/>
<path opacity="0.3" d="M13.2588 14.48H12.8882V20.52H13.2588V14.48Z" fill="#526066"/>
<path d="M13.2753 24.6C12.8306 24.6 12.3818 24.6 11.9371 24.6C11.8506 23.72 11.8506 22.8 11.9371 21.88C12.3818 21.88 12.8306 21.88 13.2753 21.88C13.3618 22.8 13.3618 23.72 13.2753 24.6Z" fill="#42708A"/>
<path d="M13.2753 24.6C12.8306 24.6 12.3818 24.6 11.9371 24.6C11.8506 23.72 11.8506 22.8 11.9371 21.88C12.3818 21.88 12.8306 21.88 13.2753 21.88C13.3618 22.8 13.3618 23.72 13.2753 24.6Z" fill="#526066"/>
<path opacity="0.3" d="M13.2753 21.88C13.1682 21.88 13.0612 21.88 12.9541 21.88C13.0406 22.8 13.0406 23.72 12.9541 24.6C13.0612 24.6 13.1682 24.6 13.2753 24.6C13.3618 23.72 13.3618 22.8 13.2753 21.88Z" fill="#526066"/>
<path opacity="0.73" d="M12.4032 24.56C12.3392 24.56 12.2792 24.56 12.2152 24.56C12.1312 23.692 12.1312 22.788 12.2112 21.88C12.2752 21.88 12.3392 21.88 12.4032 21.88C12.3232 22.788 12.3232 23.692 12.4032 24.56Z" fill="#CCDDE5"/>
<path d="M12.7771 26.48C12.9994 25.84 13.2671 25.24 13.2753 24.6H11.9371C11.9453 25.24 12.213 25.84 12.4353 26.48H12.7771Z" fill="#CCDDE5"/>
<path d="M13.2753 24.6C13.2753 24.612 13.2753 24.628 13.2753 24.64H12.3941C12.3982 25.268 12.5135 25.868 12.6494 26.48H12.4353C12.213 25.84 11.9453 25.24 11.9371 24.6H13.2753Z" fill="white"/>
<path d="M13.0941 13.6H12.1059V14.48H13.0941V13.6Z" fill="#102D3B"/>
<path d="M12.9706 13.5999H12.2294V12.5719C12.2294 12.4319 12.3612 12.3199 12.5053 12.3199H12.7112C12.8553 12.3199 12.9706 12.4319 12.9706 12.5719V13.5999Z" fill="#CCDDE5"/>
<path d="M13.7118 15.04H12.4353V15.76H13.7118V15.04Z" fill="#CCDDE5"/>
<path d="M13.7118 18.212L13.2588 17.632V15.76H13.7118V18.212Z" fill="#CCDDE5"/>
</g>
<defs>
<clipPath id="clip0_43_1084">
<rect width="41.1765" height="40" rx="10" fill="white"/>
</clipPath>
</defs>
</svg>
