<svg width="25" height="26" viewBox="0 0 25 26" fill="none" xmlns="http://www.w3.org/2000/svg">
<path d="M12.5 0.568201C14.0125 0.568201 15.2386 1.79431 15.2386 3.30685C15.2386 4.8194 14.0124 6.04543 12.5 6.04543C10.9875 6.04543 9.7613 4.81933 9.7613 3.30683C9.76325 1.79511 10.9882 0.57013 12.4998 0.568176H12.5L12.5 0.568201ZM12.5 4.90909C13.3849 4.90909 14.1022 4.19174 14.1022 3.30683C14.1022 2.42191 13.3849 1.70456 12.5 1.70456C11.6151 1.70456 10.8977 2.42191 10.8977 3.30683C10.899 4.19121 11.6156 4.90777 12.4999 4.90909H12.5ZM16.3181 8.72726H15.1818C15.1818 7.24614 13.9811 6.04546 12.5 6.04546C11.0189 6.04546 9.81817 7.24614 9.81817 8.72728H8.68181C8.68181 6.61856 10.3913 4.90912 12.5 4.90912C14.6087 4.90912 16.3181 6.61856 16.3181 8.72726ZM21.1818 13.5795C22.6943 13.5795 23.9204 14.8056 23.9204 16.3182C23.9204 17.8307 22.6943 19.0568 21.1818 19.0568C19.6693 19.0568 18.4431 17.8307 18.4431 16.3181C18.4451 14.8064 19.67 13.5814 21.1816 13.5795H21.1818ZM21.1818 17.9204C22.0667 17.9204 22.784 17.2031 22.784 16.3182C22.784 15.4333 22.0667 14.7159 21.1818 14.7159C20.2968 14.7159 19.5795 15.4333 19.5795 16.3182C19.5808 17.2026 20.2974 17.9191 21.1817 17.9205L21.1818 17.9204ZM17.3522 21.7523C17.3522 19.6404 19.0642 17.9284 21.1761 17.9284C23.2879 17.9284 25 19.6404 25 21.7523H23.8636C23.8636 20.268 22.6604 19.0648 21.1761 19.0648C19.6918 19.0648 18.4886 20.268 18.4886 21.7523L17.3522 21.7523ZM3.81819 13.5795C5.33067 13.5795 6.5568 14.8057 6.5568 16.3182C6.5568 17.8307 5.33069 19.0568 3.81814 19.0568C2.30567 19.0568 1.07954 17.8307 1.07954 16.3182C1.08149 14.8065 2.30645 13.5815 3.81795 13.5795H3.81819ZM3.81819 17.9205C4.70308 17.9205 5.42043 17.2031 5.42043 16.3182C5.42043 15.4333 4.70311 14.716 3.81819 14.716C2.93328 14.716 2.21593 15.4333 2.21593 16.3182C2.21722 17.2026 2.93381 17.9192 3.81809 17.9205L3.81819 17.9205ZM7.64771 21.7523H6.51135C6.51135 20.268 5.30813 19.0648 3.82386 19.0648C2.33959 19.0648 1.13636 20.268 1.13636 21.7523H0C0 19.6404 1.71201 17.9284 3.82386 17.9284C5.93571 17.9284 7.64771 19.6404 7.64771 21.7523ZM2.23749 12.3864L1.10113 12.3114C1.37301 8.3324 3.64906 4.93996 6.91842 3.11142L6.9761 3.08178L7.52496 4.07724C4.52477 5.74436 2.47336 8.80179 2.2391 12.3557L2.23747 12.3863L2.23749 12.3864ZM22.7624 12.3864C22.528 8.80071 20.4767 5.74185 17.5281 4.10046L17.4761 4.07385L18.0249 3.07841C21.352 4.93761 23.6275 8.33144 23.8957 12.2763L23.8977 12.3113L22.7624 12.3864ZM12.5 25.5681C10.9423 25.5669 9.45828 25.2529 8.1068 24.6857L8.18177 24.7136L8.61248 23.6624C9.76135 24.1491 11.0973 24.4319 12.4994 24.4319C13.9015 24.4319 15.2375 24.1491 16.4535 23.6374L16.3863 23.6625L16.817 24.7136C15.5409 25.2528 14.0573 25.5668 12.5005 25.5682H12.5L12.5 25.5681Z" fill="black"/>
</svg>
