<svg width="21" height="21" viewBox="0 0 21 21" fill="none" xmlns="http://www.w3.org/2000/svg">
<path d="M2.65298 16.142C2.66147 16.4441 2.73057 16.7413 2.85616 17.0161C2.98176 17.2909 3.1613 17.5376 3.38412 17.7416C3.60694 17.9457 3.86849 18.1029 4.15325 18.2039C4.438 18.3049 4.74014 18.3476 5.04173 18.3295C6.92561 18.34 8.80948 18.3295 10.6934 18.3295C10.8094 18.3295 10.9207 18.2834 11.0027 18.2014C11.0848 18.1194 11.1309 18.0081 11.1309 17.892C11.1309 17.776 11.0848 17.6647 11.0027 17.5827C10.9207 17.5006 10.8094 17.4545 10.6934 17.4545C8.76836 17.4545 6.84336 17.4825 4.91836 17.4545C3.94973 17.4405 3.52798 16.7125 3.52798 15.8463V4.94117C3.52123 4.66577 3.59871 4.39488 3.75007 4.16472C3.90143 3.93455 4.11945 3.75608 4.37498 3.65317C4.67708 3.57072 4.99142 3.54258 5.30336 3.57004H10.6934C10.8094 3.57004 10.9207 3.52395 11.0027 3.4419C11.0848 3.35986 11.1309 3.24858 11.1309 3.13254C11.1309 3.01651 11.0848 2.90523 11.0027 2.82318C10.9207 2.74114 10.8094 2.69504 10.6934 2.69504C8.74736 2.69504 6.78648 2.62067 4.84224 2.69504C4.5445 2.70257 4.25123 2.76924 3.9795 2.89117C3.70777 3.0131 3.463 3.18785 3.25943 3.40525C3.05587 3.62266 2.89757 3.87838 2.79376 4.15754C2.68995 4.43669 2.64269 4.7337 2.65473 5.03129L2.65298 16.142Z" fill="black" fill-opacity="0.9"/>
<path d="M18.221 10.2052C18.2949 10.2768 18.3382 10.3744 18.3418 10.4773C18.3418 10.4904 18.3418 10.5018 18.347 10.5149C18.3523 10.528 18.347 10.5385 18.3418 10.5508C18.3383 10.654 18.295 10.7518 18.221 10.8238L15.0106 14.0342C14.9281 14.1138 14.8176 14.1579 14.7029 14.1569C14.5882 14.156 14.4785 14.1099 14.3973 14.0288C14.3162 13.9477 14.2702 13.838 14.2692 13.7233C14.2682 13.6086 14.3123 13.498 14.392 13.4155L16.8551 10.9515H7.45588C7.33985 10.9515 7.22857 10.9054 7.14652 10.8234C7.06448 10.7413 7.01838 10.6301 7.01838 10.514C7.01838 10.398 7.06448 10.2867 7.14652 10.2047C7.22857 10.1226 7.33985 10.0765 7.45588 10.0765H16.8551L14.392 7.61253C14.3123 7.53002 14.2682 7.4195 14.2692 7.30479C14.2702 7.19008 14.3162 7.08035 14.3973 6.99923C14.4785 6.91812 14.5882 6.87211 14.7029 6.87111C14.8176 6.87011 14.9281 6.91421 15.0106 6.99391L18.221 10.2052Z" fill="black" fill-opacity="0.9"/>
</svg>
